<?xml version="1.0" encoding="iso-8859-1"?>
<!-- Generator: Adobe Illustrator 21.0.0, SVG Export Plug-In . SVG Version: 6.00 Build 0)  -->
<svg version="1.1" id="Capa_1" xmlns="http://www.w3.org/2000/svg" xmlns:xlink="http://www.w3.org/1999/xlink" x="0px" y="0px"
	 viewBox="0 0 511.999 511.999" style="enable-background:new 0 0 511.999 511.999;" xml:space="preserve">
<path style="fill:#5A5A5A;" d="M420.997,166v15H91v-15c0-74.699,60.299-134.999,134.999-134.999h59.999
	C360.697,31.002,420.997,91.302,420.997,166z"/>
<path style="fill:#444444;" d="M420.997,166v15H255.998V31.002h30C360.697,31.002,420.997,91.302,420.997,166z"/>
<rect x="120.998" y="210.998" style="fill:#FFCEBF;" width="299.997" height="149.999"/>
<rect x="255.996" y="210.998" style="fill:#FFBFAB;" width="164.998" height="149.999"/>
<path style="fill:#99503D;" d="M408.398,426.699c-31.201,34.499-75.9,54.299-122.4,54.299h-59.999
	c-46.5,0-91.198-19.801-122.4-54.299l19.2-95.699h66.898c10.501-9.6,35.7-30,66.3-30s55.799,20.4,66.3,30h66.898L408.398,426.699z"
	/>
<path style="fill:#804231;" d="M389.198,330.999l19.2,95.699c-31.201,34.499-75.9,54.299-122.4,54.299h-30V300.999
	c30.601,0,55.799,20.4,66.3,30H389.198z"/>
<path style="fill:#5A5A5A;" d="M137.655,211.088l-58.402,0.264c-8.057-1.655-16.084,3.325-17.9,11.396L0.354,493.745
	c-0.981,4.438,0.103,9.082,2.944,12.642c2.856,3.545,7.148,5.61,11.704,5.61h90.999c7.646,0,14.063-5.742,14.912-13.345l30-270.997
	C151.82,219.423,145.887,212.011,137.655,211.088z"/>
<path style="fill:#444444;" d="M450.645,222.748c-1.787-8.086-9.829-13.081-17.9-11.396l-58.402-0.264
	c-8.232,0.923-14.165,8.335-13.257,16.567l30,270.997c0.85,7.603,7.266,13.345,14.912,13.345h90.999
	c4.556,0,8.848-2.065,11.704-5.61c2.842-3.56,3.926-8.203,2.944-12.642L450.645,222.748z"/>
<path style="fill:#B6C4CF;" d="M300.998,15.002V166c0,8.399-6.599,15-15,15h-59.999c-8.401,0-15-6.601-15-15V15.002
	c0-8.401,6.599-15,15-15h59.999C294.399,0.002,300.998,6.602,300.998,15.002z"/>
<path style="fill:#9FACBA;" d="M285.998,181h-30V0.002h30c8.401,0,15,6.599,15,15V166C300.998,174.399,294.399,181,285.998,181z"/>
<path style="fill:#B6C4CF;" d="M505.397,63.4c-6-3.898-14.101-2.999-18.9,2.1l-86.8,85.5H112.301l-86.8-85.5
	c-4.799-5.099-12.9-5.999-18.9-2.1c-5.698,3.9-8.099,11.7-5.4,18.301L62.2,231.7c2.1,5.7,7.8,9.3,13.801,9.3h359.996
	c6,0,11.7-3.6,13.801-9.3l60.999-149.999C513.496,75.101,511.096,67.3,505.397,63.4z"/>
<path style="fill:#9FACBA;" d="M510.797,81.702l-60.999,149.999c-2.1,5.7-7.8,9.3-13.801,9.3H255.998v-89.999h143.698l86.8-85.5
	c4.799-5.099,12.9-5.999,18.9-2.1C511.096,67.3,513.496,75.101,510.797,81.702z"/>
<g>
</g>
<g>
</g>
<g>
</g>
<g>
</g>
<g>
</g>
<g>
</g>
<g>
</g>
<g>
</g>
<g>
</g>
<g>
</g>
<g>
</g>
<g>
</g>
<g>
</g>
<g>
</g>
<g>
</g>
</svg>
