<svg style="height: 512px; width: 512px;" xmlns="http://www.w3.org/2000/svg" viewBox="0 0 512 512"><path d="M0 0h512v512H0z" fill="#ffffff" fill-opacity="1"></path><g class="" style="touch-action: none;" transform="translate(0,0)"><g><path d="M191.02 25.346L168.12 59.696L198.834 59.696L221.734 25.346L191.02 25.346Z" class="" fill="#d0021b" fill-opacity="1"></path><path d="M243.367 25.346L220.469 59.696L291.529 59.696L268.632 25.346L243.366 25.346Z" class="" fill="#48baff" fill-opacity="1"></path><path d="M290.267 25.346L313.167 59.696L343.881 59.696L320.981 25.346L290.267 25.346Z" class="selected" fill="#7ed321" fill-opacity="1"></path><path d="M173.033 77.696L223.148 127.811L198.09 77.696L173.033 77.696Z" class="" fill="#9013fe" fill-opacity="1"></path><path d="M218.215 77.696L256 153.265L293.785 77.695L218.215 77.695Z" class="" fill="#f8e71c" fill-opacity="1"></path><path d="M313.91 77.696L288.852 127.811L338.967 77.696L313.91 77.696Z" class="" fill="#fc88fc" fill-opacity="1"></path><path d="M179.475 109.594C109.163 139.5 59.693 209.29 59.693 290.348C59.693 398.533 147.815 486.654 256 486.654C364.185 486.654 452.307 398.534 452.307 290.348C452.307 209.291 402.837 139.5 332.525 109.594L302.008 140.111C366.405 159.703 413.045 219.403 413.045 290.349C413.045 377.315 342.965 447.394 256 447.394C169.034 447.394 98.955 377.314 98.955 290.349C98.955 219.403 145.595 159.703 209.992 140.112L179.475 109.596Z" class="" fill="#f5a623" fill-opacity="1"></path></g></g></svg>