<svg style="height: 512px; width: 512px;" xmlns="http://www.w3.org/2000/svg" viewBox="0 0 512 512"><path d="M0 0h512v512H0z" fill="#ffffff" fill-opacity="1"></path><g class="" style="touch-action: none;" transform="translate(0,0)"><g><path d="M245.003 21.882C78.005 22.634 -58.011 232.934 114.413 403.052C122.448 428.462 157.197 444.517 209.323 460.914C247.155 472.907 260.106 455.949 251.425 433.592C213.947 337.066 128.809 340.355 122.832 331.522C19.647 179.044 185.37 34.12 321.578 99.659C476.498 174.169 414.737 318.046 326.677 378.919C292.698 402.311 271.884 432.821 283.062 463.049C289.052 479.223 318.02 492.106 328.99 489.867C337.648 488.103 292.697 463.567 320.687 433.919C342.924 410.259 410.29 396.455 445.811 330.409C513.264 205.257 474.512 92.009 315.114 34.149C302.958 29.775 290.86 26.63 278.734 24.599C267.588 22.741 256.304 21.832 245.004 21.883Z" class="" fill="#417505" fill-opacity="1"></path><path d="M256.437 102.082C256.437 102.082 228.062 132.812 228.566 164.227C228.596 170.661 229.87 177.184 231.797 183.366C241.997 195.376 250.269 209.296 257.445 224.402C264.531 205.901 273.574 190.038 284.812 177.112C285.523 173.212 285.908 169.372 285.908 165.487C285.493 134.089 256.437 102.082 256.437 102.082Z" class="" fill="#ffffff" fill-opacity="1"></path><path d="M371.094 156.023C317.635 159.181 283.064 207.318 262.457 249.257C261.567 251.169 255.008 251.693 253.857 249.717C238.647 222.187 229.099 201.505 210.302 185.91C192.512 171.115 170.066 162.309 139.852 162.146C141.157 174.139 146.852 207.006 170.66 225.226C178.785 231.466 190.584 234.7 202.564 237.471C214.484 240.155 226.727 242.274 236.067 247.819C243.598 252.296 248.401 259.294 250.685 267.433C252.968 275.541 252.909 284.747 251.16 294.503C248.223 311.448 240.248 330.083 229.603 347.25C229.603 347.25 261.091 360.37 266.696 409.886C277.132 384.535 299.103 370.037 299.103 370.037C287.54 353.595 271.113 311.047 267.2 294.325C265.035 284.705 264.353 275.556 266.132 267.328C267.882 259.116 272.211 251.823 279.475 246.945C288.489 240.91 300.497 238.123 312.327 234.745C324.187 231.348 335.721 227.375 343.667 220.645C357.721 208.637 364.717 191.395 368.127 176.927C369.788 169.677 370.648 163.212 370.974 158.617C371.094 157.49 371.064 156.897 371.094 156.023Z" class="selected" fill="#ffffff" fill-opacity="1"></path><path d="M157.973 387.005C167.693 387.271 193.519 407.443 186.224 408.944C154.457 415.477 150.236 395.32 154.937 388.222C155.525 387.335 156.584 386.968 157.973 387.005Z" class="" fill="#d0021b" fill-opacity="1"></path></g></g></svg>