<svg width="22" height="24" viewBox="0 0 22 24" fill="none" xmlns="http://www.w3.org/2000/svg">
<path d="M4.29248 7.78644C4.38735 8.92139 4.60522 10.476 5.09819 12.1084C6.14516 15.575 7.99469 18.0399 10.5983 19.4407C13.2019 18.0399 15.0514 15.575 16.0983 12.1084C16.5913 10.4762 16.8091 8.92149 16.9041 7.78644L10.5983 4.63354L4.29248 7.78644Z" fill="#383045"/>
<path d="M21.1849 5.60875C21.1717 5.35592 21.0236 5.12966 20.7972 5.01646L10.9127 0.0742125C10.7148 -0.0247375 10.4818 -0.0247375 10.2839 0.0742125L0.399408 5.01646C0.172962 5.12966 0.0248417 5.35592 0.0117171 5.60875C0.00421732 5.75266 -0.15834 9.17902 1.00886 13.157C1.69949 15.5107 2.71533 17.5665 4.02817 19.2672C5.68257 21.4103 7.80894 22.9869 10.3482 23.9533C10.4288 23.9839 10.5135 23.9992 10.5983 23.9992C10.6831 23.9992 10.7678 23.9839 10.8484 23.9533C13.3876 22.987 15.514 21.4103 17.1684 19.2672C18.4812 17.5665 19.4971 15.5107 20.1877 13.157C21.3549 9.17902 21.1924 5.75266 21.1849 5.60875ZM10.9099 20.8621C10.8117 20.9106 10.705 20.9349 10.5983 20.9349C10.4916 20.9349 10.3848 20.9106 10.2867 20.8621C7.1559 19.3141 4.95734 16.5057 3.75213 12.515C3.14934 10.519 2.9317 8.63814 2.8553 7.41184C2.83772 7.13022 2.99025 6.86543 3.24261 6.73925L10.2839 3.21863C10.4819 3.11972 10.7148 3.11968 10.9128 3.21863L17.9541 6.73925C18.2065 6.86539 18.359 7.13027 18.3414 7.41188C18.265 8.63828 18.0473 10.5192 17.4445 12.515C16.2392 16.5057 14.0407 19.3141 10.9099 20.8621Z" fill="#383045"/>
</svg>
