<svg width="26" height="26" viewBox="0 0 26 26" fill="none" xmlns="http://www.w3.org/2000/svg">
<path d="M20.3115 20.4355C20.3124 20.381 20.3127 20.3264 20.3124 20.2717C20.2906 16.2877 17.0404 13.0304 13.0564 13.0002C8.99849 12.9694 5.6875 16.2616 5.6875 20.3125C5.6875 20.369 5.68816 20.4253 5.68943 20.4815C5.74504 22.92 7.45799 25.0087 9.82302 25.6052C10.8548 25.8654 11.9217 26 13 26C14.0781 26 15.1447 25.8655 16.1764 25.6053C18.5581 25.0048 20.2708 22.8914 20.3115 20.4355Z" fill="#A72635"/>
<path d="M22.192 3.80717C19.751 1.36637 16.4519 0 12.9999 0C9.52753 0 6.26295 1.35225 3.80758 3.80758C1.3522 6.26295 0 9.52753 0 13C0 16.0645 1.08657 19.0401 3.05988 21.3791C3.28981 21.6513 3.53153 21.9148 3.78325 22.1678C3.95911 22.3445 4.25628 22.185 4.21098 21.9398C4.11348 21.412 4.0625 20.8681 4.0625 20.3125C4.0625 16.6039 6.33298 13.4158 9.55693 12.0649C9.72425 11.9948 9.76742 11.7752 9.63615 11.6499C8.66724 10.725 8.07767 9.40601 8.128 7.9529C8.2159 5.41455 10.2694 3.35202 12.8074 3.25376C15.5828 3.14625 17.875 5.37301 17.875 8.125C17.875 9.50996 17.2943 10.7616 16.3638 11.6499C16.2326 11.7752 16.2758 11.9948 16.4431 12.0649C19.667 13.4158 21.9375 16.6039 21.9375 20.3125C21.9375 20.8681 21.8865 21.412 21.789 21.9398C21.7437 22.185 22.0408 22.3445 22.2167 22.1677C22.4685 21.9147 22.7103 21.6512 22.9403 21.3788C24.9134 19.0402 26 16.0645 26 13C26 9.52732 24.6476 6.26255 22.192 3.80717Z" fill="#A72635"/>
<path d="M13 11.375C14.7949 11.375 16.25 9.91993 16.25 8.125C16.25 6.33007 14.7949 4.875 13 4.875C11.2051 4.875 9.75 6.33007 9.75 8.125C9.75 9.91993 11.2051 11.375 13 11.375Z" fill="#A72635"/>
</svg>
