<svg width="18" height="19" viewBox="0 0 18 19" fill="none" xmlns="http://www.w3.org/2000/svg">
<path d="M12.6932 16.6907C12.5235 16.8594 12.347 17.0189 12.1648 17.1697L13.7759 18.7715L14.5311 18.0207L12.9374 16.4363C12.8581 16.5226 12.7769 16.6075 12.6932 16.6907Z" fill="#D594DB"/>
<path d="M1.59086 16.4391L0 18.0207L0.755135 18.7715L2.36383 17.1721C2.18057 17.0206 2.00308 16.8603 1.83246 16.6907C1.7497 16.6084 1.66932 16.5244 1.59086 16.4391Z" fill="#D594DB"/>
<path d="M12.2951 11.2918C12.2951 14.0506 10.0376 16.295 7.26273 16.295C4.48785 16.295 2.23031 14.0506 2.23031 11.2918C2.23031 8.53297 4.48785 6.28852 7.26273 6.28852C8.46497 6.28852 9.56993 6.71003 10.4364 7.41195L11.5573 6.29765C10.4011 5.31342 8.9003 4.71814 7.2628 4.71814C3.61688 4.71814 0.650879 7.6673 0.650879 11.2917C0.650879 14.9165 3.61688 17.8653 7.2628 17.8653C10.9084 17.8653 13.8744 14.9165 13.8744 11.2917C13.8744 9.67682 13.2856 8.19605 12.3102 7.05043L11.1887 8.16547C11.8805 9.02254 12.2951 10.1098 12.2951 11.2918Z" fill="#D594DB"/>
<path d="M6.91138 10.9161L7.73864 10.0937C7.59116 10.0356 7.43068 10.0033 7.26266 10.0033C6.54811 10.0033 5.9668 10.5812 5.9668 11.2916C5.9668 12.0021 6.54814 12.58 7.26266 12.58C7.97718 12.58 8.55853 12.0021 8.55853 11.2916C8.55853 11.1388 8.53147 10.9922 8.48213 10.8561L7.66638 11.6671L6.91138 10.9161Z" fill="#D594DB"/>
<path d="M3.29834 11.2918C3.29834 13.4652 5.0768 15.2333 7.26282 15.2333C9.44884 15.2333 11.2273 13.4652 11.2273 11.2918C11.2273 10.4028 10.9296 9.58169 10.4283 8.92158L9.27808 10.0651C9.49893 10.4225 9.62662 10.8425 9.62662 11.2918C9.62662 12.5877 8.56624 13.6419 7.26282 13.6419C5.95941 13.6419 4.89903 12.5877 4.89903 11.2918C4.89903 9.99599 5.95945 8.94175 7.26282 8.94175C7.7283 8.94175 8.16242 9.07677 8.52868 9.30865L9.67664 8.16742C9.00765 7.65534 8.17046 7.35034 7.26282 7.35034C5.0768 7.35031 3.29834 9.11842 3.29834 11.2918Z" fill="#D594DB"/>
<path d="M15.9468 2.68409L15.5036 0.642822L12.7817 3.34891V5.08015L11.5574 6.29758C11.8283 6.52798 12.0799 6.77996 12.3103 7.05035L13.5369 5.8308H15.2781L18 3.12471L15.9468 2.68409Z" fill="#D594DB"/>
</svg>
