<svg width="18" height="19" viewBox="0 0 18 19" fill="none" xmlns="http://www.w3.org/2000/svg">
<path d="M8.35777 13.1868L5.37466 10.1824C4.7578 9.56112 3.7542 9.56112 3.13734 10.1824C2.93143 10.3898 2.93143 10.7261 3.13734 10.9335L7.612 15.4401C7.81791 15.6475 8.15186 15.6475 8.35777 15.4401C8.97466 14.8188 8.97466 13.808 8.35777 13.1868Z" fill="#EA685B"/>
<path d="M3.88342 13.187L2.39185 14.6891L3.88342 16.1912L5.375 14.6891L3.88342 13.187Z" fill="#EA685B"/>
<path d="M3.13763 16.9425L1.64588 15.4401C1.03968 14.8295 0.000210938 15.2632 0 16.1267V17.0069C0 17.4462 0.177328 17.8441 0.463923 18.1328C0.750517 18.4214 1.1456 18.6 1.58186 18.6H2.45581C3.31288 18.5999 3.74369 17.5528 3.13763 16.9425Z" fill="#EA685B"/>
<path d="M17.3989 0.476209L12.1785 1.22734C12.0477 1.24603 11.9287 1.31387 11.8449 1.41659L5.63403 8.94117L7.23934 10.5579L12.0869 5.67577C12.293 5.46818 12.6266 5.46818 12.8327 5.67577C13.0388 5.88336 13.0388 6.21931 12.8327 6.42687L7.98511 11.309L9.59042 12.9258L17.0617 6.67061C17.1636 6.58627 17.231 6.46631 17.2496 6.33466L17.9953 1.07693C18.0427 0.746118 17.7273 0.428515 17.3989 0.476209Z" fill="#EA685B"/>
</svg>
