<svg width="16" height="19" viewBox="0 0 16 19" fill="none" xmlns="http://www.w3.org/2000/svg">
<path d="M15.5105 5.05129C15.4096 4.92461 15.2319 4.89104 15.0922 4.9723L10.7132 7.51974L11.8112 4.72216C11.887 4.55719 11.8156 4.36156 11.6518 4.28529C11.5326 4.22979 11.3921 4.25147 11.2949 4.34037L8.6152 6.64426L7.85378 1.15442C7.83082 0.990846 7.69099 0.869768 7.52698 0.871373C7.36616 0.869028 7.22752 0.984881 7.20019 1.14455L6.21981 6.73971L4.63813 5.40345C4.50051 5.28587 4.29427 5.30291 4.17752 5.44151C4.11882 5.5112 4.09153 5.60233 4.10219 5.69309L4.33748 7.79292L0.863675 6.1407C0.697133 6.07063 0.505755 6.14979 0.436148 6.31748C0.391091 6.42613 0.407063 6.55071 0.478059 6.64426L3.18717 9.81705L1.35713 10.6267C1.19288 10.7021 1.12041 10.8972 1.19525 11.0627C1.22793 11.1349 1.2854 11.1928 1.35713 11.2257L3.28848 12.1407L1.9519 13.76C1.83601 13.8993 1.85427 14.1069 1.99266 14.2236C2.05696 14.2779 2.13947 14.3051 2.22313 14.2998L4.22311 14.1747L1.80484 18.2855C1.71281 18.4419 1.76411 18.6437 1.91938 18.7364C2.03968 18.8082 2.19201 18.795 2.2983 18.7035L6.21981 15.3365L7.13483 18.7561C7.17425 18.904 7.30971 19.0049 7.46162 18.9997C7.61448 19.0045 7.75026 18.902 7.78842 18.7528L8.64788 15.3135L12.6348 18.7035C12.772 18.8216 12.9783 18.8053 13.0955 18.6671C13.1863 18.5601 13.1995 18.4066 13.1282 18.2855L10.6805 14.1352L12.7263 14.3656C12.9057 14.3849 13.0668 14.2541 13.086 14.0733C13.0955 13.9839 13.0682 13.8945 13.0106 13.8258L11.5465 12.0979L13.3864 11.252C13.5506 11.1767 13.6231 10.9815 13.5483 10.8161C13.5156 10.7438 13.4581 10.6859 13.3864 10.653L11.6217 9.87629L15.5105 5.47915C15.6151 5.35598 15.6151 5.17446 15.5105 5.05129Z" fill="#EE6496"/>
</svg>
