<svg width="16" height="19" viewBox="0 0 16 19" fill="none" xmlns="http://www.w3.org/2000/svg">
<path d="M3.24023 6.57464C3.31185 7.43196 3.4763 8.60632 3.84841 9.83938C4.63871 12.458 6.03481 14.3199 8.0001 15.3781C9.96539 14.3199 11.3615 12.458 12.1517 9.83938C12.5239 8.60642 12.6883 7.43203 12.76 6.57464L8.0001 4.19299L3.24023 6.57464Z" fill="#73CBF1"/>
<path d="M15.9912 4.92963C15.9812 4.73864 15.8694 4.56773 15.6985 4.48222L8.23734 0.74893C8.08792 0.674185 7.91208 0.674185 7.76266 0.74893L0.301489 4.48222C0.130558 4.56773 0.0187515 4.73864 0.00884451 4.92963C0.00318339 5.03833 -0.119521 7.62654 0.761525 10.6315C1.28284 12.4094 2.04964 13.9623 3.04062 15.247C4.28942 16.8659 5.89449 18.0568 7.81124 18.7867C7.87206 18.8099 7.93599 18.8214 8 18.8214C8.06401 18.8214 8.12794 18.8099 8.18876 18.7867C10.1055 18.0568 11.7106 16.8659 12.9594 15.247C13.9504 13.9623 14.7172 12.4094 15.2385 10.6315C16.1195 7.62654 15.9968 5.03833 15.9912 4.92963ZM8.23522 16.4517C8.16109 16.4884 8.08053 16.5067 8 16.5067C7.91947 16.5067 7.83887 16.4884 7.76478 16.4517C5.40155 15.2824 3.74199 13.161 2.83225 10.1465C2.37724 8.63873 2.21296 7.21797 2.15529 6.29164C2.14202 6.07891 2.25716 5.8789 2.44765 5.78358L7.76269 3.12417C7.91211 3.04946 8.08796 3.04942 8.23738 3.12417L13.5525 5.78358C13.7429 5.87886 13.8581 6.07895 13.8448 6.29168C13.7871 7.21808 13.6228 8.63887 13.1678 10.1465C12.258 13.161 10.5985 15.2824 8.23522 16.4517Z" fill="#73CBF1"/>
</svg>
