<svg width="18" height="13" viewBox="0 0 18 13" fill="none" xmlns="http://www.w3.org/2000/svg">
<path d="M5.92211 0.527382C5.79127 0.529446 5.67572 0.613914 5.63322 0.738552L3.14772 8.03552H0.315067C-0.105022 8.02951 -0.105022 8.66721 0.315067 8.6612H3.36951C3.50221 8.6612 3.62018 8.5763 3.6633 8.44991L5.95162 1.73196L10.1848 12.2203C10.2865 12.4722 10.6368 12.4825 10.753 12.2371L12.4443 8.66127H14.3139V10.2255C14.3139 10.3868 14.4437 10.5175 14.6038 10.5175C14.6564 10.5175 14.708 10.5031 14.753 10.4759L17.8593 8.59882C17.9966 8.51586 18.0411 8.33647 17.9587 8.1982C17.9342 8.15709 17.9001 8.12274 17.8593 8.09802L14.753 6.22096C14.7113 6.19581 14.664 6.1816 14.6155 6.17966C14.4555 6.17316 14.3205 6.29854 14.3141 6.45966C14.3139 6.46354 14.3138 6.46748 14.3138 6.47136V8.03558H12.2482C12.1284 8.03558 12.0193 8.10497 11.9677 8.2139L10.4949 11.3276L6.21478 0.722346C6.16651 0.602777 6.05027 0.525379 5.92211 0.527382ZM14.8937 6.98705L17.1465 8.34842L14.8937 9.7098V6.98705ZM15.2189 7.56519C15.1332 7.56763 15.0656 7.63958 15.068 7.72599C15.0695 7.77905 15.0977 7.82779 15.1427 7.85532L16.1367 8.48101C16.2082 8.52875 16.3046 8.50904 16.352 8.43702C16.3994 8.365 16.3798 8.2679 16.3083 8.22022C16.306 8.21872 16.3037 8.21722 16.3013 8.21584L15.3073 7.59015C15.2811 7.57301 15.2503 7.56431 15.2189 7.56519Z" fill="#F18A50"/>
</svg>
