<svg width="18" height="17" viewBox="0 0 18 17" fill="none" xmlns="http://www.w3.org/2000/svg">
<path d="M13.3125 0C11.3159 0 9.66688 1.81114 9 2.66593C8.33312 1.81114 6.68408 0 4.68749 0C2.1028 0 0 2.3208 0 5.17306C0 6.72919 0.632461 8.17948 1.7395 9.17194C1.7556 9.19914 1.77539 9.22417 1.79845 9.24669L8.73524 16.0073C8.80847 16.0785 8.90406 16.1143 9 16.1143C9.09594 16.1143 9.19188 16.0785 9.26515 16.007L16.4326 9.00958L16.5066 8.93947C16.5652 8.88546 16.6231 8.83073 16.6879 8.76065C16.715 8.73456 16.7373 8.7052 16.7545 8.67338C17.5584 7.71201 18 6.47203 18 5.17306C18 2.3208 15.8972 0 13.3125 0Z" fill="#ED7AA1"/>
</svg>
