<svg width="18" height="19" viewBox="0 0 18 19" fill="none" xmlns="http://www.w3.org/2000/svg">
<path d="M17.4488 0.228577H15.843C15.5385 0.228577 15.2917 0.47715 15.2917 0.783821C15.2917 1.09049 15.5385 1.33906 15.843 1.33906H16.8975V2.40128C16.8975 2.70795 17.1443 2.95652 17.4488 2.95652C17.7532 2.95652 18 2.70795 18 2.40128V0.783821C18 0.47715 17.7532 0.228577 17.4488 0.228577V0.228577Z" fill="#7C99FF"/>
<path d="M17.4488 10.0052C17.1443 10.0052 16.8975 10.2538 16.8975 10.5605V11.6227H15.843C15.5385 11.6227 15.2917 11.8713 15.2917 12.1779C15.2917 12.4846 15.5385 12.7332 15.843 12.7332H17.4488C17.7532 12.7332 18 12.4846 18 12.1779V10.5605C18 10.2538 17.7532 10.0052 17.4488 10.0052Z" fill="#7C99FF"/>
<path d="M6.13669 2.95652C6.44115 2.95652 6.68793 2.70795 6.68793 2.40128V1.33906H7.74248C8.04694 1.33906 8.29372 1.09049 8.29372 0.783821C8.29372 0.47715 8.04694 0.228577 7.74248 0.228577H6.13669C5.83223 0.228577 5.58545 0.47715 5.58545 0.783821V2.40128C5.58545 2.70795 5.83223 2.95652 6.13669 2.95652Z" fill="#7C99FF"/>
<path d="M8.61493 8.37146L0.269028 16.778C-0.089676 17.1393 -0.089676 17.7248 0.269028 18.0862C0.627732 18.4475 1.20905 18.4475 1.56775 18.0862L9.91366 9.67962L9.56127 8.72641L8.61493 8.37146Z" fill="#7C99FF"/>
<path d="M16.2984 7.64956L15.0785 5.74632C14.9944 5.6145 14.969 5.45279 15.0094 5.30133L15.5874 3.13167C15.6643 2.84284 15.4019 2.5785 15.1151 2.6561L12.9614 3.2386C12.8112 3.27926 12.6505 3.25367 12.5197 3.16902L10.6301 1.94026C10.38 1.77773 10.049 1.9498 10.036 2.24942L9.93768 4.48783C9.93067 4.64746 9.8561 4.79588 9.73264 4.89617L7.97593 6.3201C7.74302 6.50892 7.80289 6.8813 8.08305 6.98643L9.47213 7.50792C10.5682 7.91903 10.3631 7.71319 10.7709 8.81608L11.2886 10.2153C11.393 10.4974 11.7626 10.5577 11.9501 10.3231L13.3638 8.55367C13.4633 8.42931 13.6107 8.3542 13.7692 8.34715L15.9914 8.24811C16.2889 8.23483 16.4597 7.9016 16.2984 7.64956Z" fill="#7C99FF"/>
</svg>
