<svg width="12" height="20" viewBox="0 0 12 20" fill="none" xmlns="http://www.w3.org/2000/svg">
<path d="M3.12058 19.05C1.12613 12.4095 5.34036 9.98491 5.34036 9.98491C5.04551 13.5283 7.0384 16.2889 7.0384 16.2889C7.77135 16.0654 9.17035 15.0211 9.17035 15.0211C9.17035 16.2889 8.43217 19.0484 8.43217 19.0484C8.43217 19.0484 11.0163 17.0295 11.8298 13.6762C12.6422 10.323 10.2823 6.95653 10.2823 6.95653C10.4245 9.3299 9.62989 11.6642 8.07301 13.4475C8.1509 13.3566 8.21625 13.2558 8.26644 13.1464C8.54613 12.5812 8.99521 11.1122 8.73225 7.71032C8.36211 2.93506 4.07991 0.921417 4.07991 0.921417C4.449 3.83095 3.34225 4.50128 0.749714 10.024C-1.84282 15.5457 3.12058 19.05 3.12058 19.05Z" fill="#45D0B2"/>
</svg>
