<svg id="Capa_1" enable-background="new 0 0 510.778 510.778" height="512" viewBox="0 0 510.778 510.778" width="512" xmlns="http://www.w3.org/2000/svg">
  <g>
    <path d="m269.745 229.84c-2.889-2.889-4.474-6.83-4.391-10.914.509-24.895 1.773-49.933 3.766-74.652h-27.46c1.992 24.713 3.256 49.753 3.766 74.651.083 4.084-1.502 8.025-4.391 10.914-2.888 2.889-6.847 4.474-10.914 4.39-24.823-.51-49.789-1.776-74.431-3.772v27.594c24.648-1.996 49.612-3.262 74.432-3.772 4.085-.073 8.025 1.501 10.914 4.39 2.889 2.888 4.475 6.83 4.391 10.914-.509 24.898-1.773 49.938-3.766 74.651h27.46c-1.993-24.718-3.257-49.756-3.766-74.651-.083-4.084 1.502-8.025 4.391-10.914s6.845-4.478 10.914-4.39c24.823.51 49.789 1.776 74.431 3.772v-27.594c-24.642 1.996-49.608 3.262-74.431 3.772-4.082.082-8.026-1.502-10.915-4.389z" fill="#45D0B2"/>
    <path d="m454.136 20.973c-18.527 33.765-52.827 56.435-92.081 56.435-45.203 0-83.836-30.061-99.38-72.508-2.392-6.533-11.715-6.533-14.108 0-15.544 42.447-54.177 72.508-99.38 72.508-39.167 0-73.401-22.568-91.957-56.208-3.781-6.854-14.161-4.284-14.186 3.544l-.544 171.255c0 159.116 79.718 236.05 208.632 313.453.267.16.535.321.803.481 1.034.538 2.206.846 3.452.846s2.418-.308 3.452-.846c.267-.16.536-.321.803-.481 128.915-77.403 208.632-154.336 208.632-313.453v-171.388c.002-7.796-10.388-10.472-14.138-3.638zm-69.046 253.454c0 4.225-1.781 8.253-4.906 11.096-3.125 2.842-7.304 4.234-11.509 3.837-24.031-2.277-48.487-3.839-72.904-4.66.818 24.488 2.377 49.019 4.65 73.126.396 4.205-.998 8.381-3.84 11.504-2.842 3.124-6.87 4.904-11.093 4.904h-60.198c-4.223 0-8.25-1.78-11.093-4.904-2.843-3.123-4.237-7.3-3.84-11.504 2.273-24.104 3.832-48.633 4.65-73.126-24.413.82-48.868 2.382-72.904 4.66-4.205.399-8.384-.995-11.509-3.837-3.125-2.843-4.906-6.871-4.906-11.096v-60.345c0-4.224 1.781-8.252 4.906-11.095s7.306-4.239 11.509-3.837c24.031 2.277 48.487 3.839 72.904 4.66-.818-24.494-2.377-49.022-4.65-73.127-.396-4.205.998-8.381 3.84-11.504 2.843-3.124 6.87-4.904 11.093-4.904h60.198c4.223 0 8.251 1.78 11.093 4.904 2.843 3.123 4.237 7.3 3.84 11.504-2.273 24.108-3.832 48.639-4.65 73.127 24.417-.821 48.873-2.383 72.904-4.66 4.21-.402 8.384.995 11.509 3.837 3.125 2.843 4.906 6.871 4.906 11.096z" fill="#45D0B2"/>
  </g>
</svg>
