<svg width="18" height="18" viewBox="0 0 18 18" fill="none" xmlns="http://www.w3.org/2000/svg">
<path d="M17.6935 4.10892L17.6494 4.06454C17.2356 3.6477 16.5611 3.64678 16.1447 4.06578L14.5248 5.71436C14.4395 5.80059 14.303 5.80406 14.214 5.72154L11.9429 3.60986C11.7223 3.40456 11.4353 3.29175 11.1347 3.29175H7.75631C7.67656 3.29175 7.60026 3.32237 7.54255 3.37737L4.6792 6.11555C4.25973 6.53833 4.23088 7.21983 4.6153 7.63479C4.8207 7.85666 5.09807 7.97882 5.39621 7.97882H5.40149C5.69717 7.97726 5.98136 7.85071 6.17776 7.63447L8.19999 5.47904H8.92383L4.20452 10.7911H1.29372C0.603696 10.7911 0.0362629 11.3107 0.00181972 11.9741C-0.0164914 12.3207 0.103884 12.65 0.340628 12.9012C0.573928 13.149 0.901875 13.2909 1.241 13.2909H5.58456C5.67018 13.2909 5.7521 13.2552 5.81104 13.1918L8.03649 10.7992L9.90795 12.7703L9.34298 16.4068C9.20057 17.0092 9.48757 17.6229 10.0252 17.8651C10.1909 17.9401 10.3668 17.9776 10.5418 17.9776C10.7301 17.9776 10.9175 17.9341 11.09 17.8482C11.4232 17.682 11.6628 17.3779 11.7499 16.9998L12.7151 11.7856C12.7338 11.6844 12.7018 11.58 12.6292 11.5072L10.0532 8.91624L12.0996 6.85832L13.5262 8.29473C13.9246 8.69596 14.6189 8.69596 15.017 8.29473L17.6935 5.59935C17.8912 5.40032 18.0001 5.13533 18.0001 4.8541C18 4.57263 17.8911 4.30796 17.6935 4.10892Z" fill="#E7B946"/>
<path d="M14.2717 4.22917C15.2984 4.22917 16.1332 3.38832 16.1332 2.35433C16.1332 1.32035 15.2984 0.479492 14.2717 0.479492C13.2451 0.479492 12.4102 1.32035 12.4102 2.35433C12.4102 3.38832 13.2451 4.22917 14.2717 4.22917Z" fill="#E7B946"/>
</svg>
