<svg width="170" height="33" viewBox="0 0 170 33" fill="none" xmlns="http://www.w3.org/2000/svg">
<path d="M0 0H170V23.9311C170 28.9017 165.971 32.9311 161 32.9311H9C4.02944 32.9311 0 28.9017 0 23.9311V0Z" fill="#33C627"/>
<path d="M62.0025 16.6299C61.9706 17.3226 61.7838 17.9355 61.442 18.4688C61.1002 18.9974 60.6194 19.4076 59.9996 19.6992C59.3844 19.9909 58.6803 20.1367 57.8873 20.1367C56.5794 20.1367 55.5494 19.7106 54.7975 18.8584C54.0455 18.0062 53.6695 16.8031 53.6695 15.249V14.7568C53.6695 13.7816 53.8382 12.9294 54.1754 12.2002C54.5172 11.4665 55.0071 10.9014 55.6451 10.5049C56.2831 10.1038 57.0214 9.90332 57.86 9.90332C59.0676 9.90332 60.0383 10.2223 60.7721 10.8604C61.5058 11.4938 61.9228 12.3688 62.023 13.4854H59.6305C59.6122 12.8792 59.4596 12.444 59.1725 12.1797C58.8854 11.9154 58.4479 11.7832 57.86 11.7832C57.263 11.7832 56.8255 12.0065 56.5475 12.4531C56.2695 12.8997 56.1236 13.613 56.11 14.5928V15.2969C56.11 16.3587 56.2421 17.1175 56.5064 17.5732C56.7753 18.029 57.2356 18.2568 57.8873 18.2568C58.4387 18.2568 58.8603 18.127 59.152 17.8672C59.4436 17.6074 59.5986 17.195 59.6168 16.6299H62.0025ZM71.706 15.2285C71.706 16.1992 71.526 17.0583 71.166 17.8057C70.806 18.5531 70.2933 19.1296 69.6279 19.5352C68.9671 19.9362 68.2129 20.1367 67.3652 20.1367C66.5175 20.1367 65.7656 19.943 65.1093 19.5557C64.4531 19.1637 63.9404 18.6055 63.5713 17.8809C63.2067 17.1562 63.0153 16.3245 62.997 15.3857V14.8252C62.997 13.8499 63.1748 12.9909 63.5302 12.248C63.8903 11.5007 64.403 10.9242 65.0683 10.5186C65.7382 10.113 66.4993 9.91016 67.3515 9.91016C68.1946 9.91016 68.9466 10.1107 69.6074 10.5117C70.2682 10.9128 70.7809 11.4847 71.1455 12.2275C71.5146 12.9658 71.7015 13.8135 71.706 14.7705V15.2285ZM69.2656 14.8115C69.2656 13.8226 69.0992 13.0729 68.7666 12.5625C68.4384 12.0475 67.9668 11.79 67.3515 11.79C66.1484 11.79 65.5127 12.6924 65.4443 14.4971L65.4375 15.2285C65.4375 16.2038 65.5992 16.9535 65.9228 17.4775C66.2464 18.0016 66.7272 18.2637 67.3652 18.2637C67.9713 18.2637 68.4384 18.0062 68.7666 17.4912C69.0947 16.9762 69.261 16.2357 69.2656 15.2695V14.8115ZM76.2347 10.0469L78.4564 16.9717L80.6712 10.0469H83.8294V20H81.4232V17.6758L81.6556 12.918L79.2493 20H77.6634L75.2503 12.9111L75.4827 17.6758V20H73.0833V10.0469H76.2347ZM88.652 10.0469L90.8737 16.9717L93.0886 10.0469H96.2468V20H93.8405V17.6758L94.0729 12.918L91.6667 20H90.0807L87.6677 12.9111L87.9001 17.6758V20H85.5007V10.0469H88.652ZM106.347 15.2285C106.347 16.1992 106.167 17.0583 105.807 17.8057C105.447 18.5531 104.934 19.1296 104.269 19.5352C103.608 19.9362 102.854 20.1367 102.006 20.1367C101.158 20.1367 100.406 19.943 99.75 19.5557C99.0938 19.1637 98.5811 18.6055 98.212 17.8809C97.8474 17.1562 97.656 16.3245 97.6377 15.3857V14.8252C97.6377 13.8499 97.8155 12.9909 98.1709 12.248C98.531 11.5007 99.0437 10.9242 99.709 10.5186C100.379 10.113 101.14 9.91016 101.992 9.91016C102.835 9.91016 103.587 10.1107 104.248 10.5117C104.909 10.9128 105.422 11.4847 105.786 12.2275C106.155 12.9658 106.342 13.8135 106.347 14.7705V15.2285ZM103.906 14.8115C103.906 13.8226 103.74 13.0729 103.407 12.5625C103.079 12.0475 102.607 11.79 101.992 11.79C100.789 11.79 100.153 12.6924 100.085 14.4971L100.078 15.2285C100.078 16.2038 100.24 16.9535 100.564 17.4775C100.887 18.0016 101.368 18.2637 102.006 18.2637C102.612 18.2637 103.079 18.0062 103.407 17.4912C103.735 16.9762 103.902 16.2357 103.906 15.2695V14.8115ZM116.037 20H113.651L110.123 13.8066V20H107.724V10.0469H110.123L113.644 16.2402V10.0469H116.037V20Z" fill="white"/>
</svg>
