<svg width="170" height="33" viewBox="0 0 170 33" fill="none" xmlns="http://www.w3.org/2000/svg">
<path d="M0 0H170V23.9311C170 28.9017 165.971 32.9311 161 32.9311H9C4.02944 32.9311 0 28.9017 0 23.9311V0Z" fill="#C521D3"/>
<path d="M71.4189 16.2994H70.1201V19.8131H67.7207V9.85999H71.6377C72.818 9.85999 73.7408 10.122 74.4062 10.6461C75.0716 11.1702 75.4043 11.9108 75.4043 12.8678C75.4043 13.5605 75.263 14.1347 74.9804 14.5905C74.7024 15.0462 74.2649 15.4153 73.6679 15.6979L75.7461 19.7106V19.8131H73.1757L71.4189 16.2994ZM70.1201 14.4469H71.6377C72.0934 14.4469 72.4352 14.3284 72.663 14.0914C72.8955 13.8499 73.0117 13.5149 73.0117 13.0865C73.0117 12.6582 72.8955 12.3232 72.663 12.0817C72.4306 11.8356 72.0888 11.7125 71.6377 11.7125H70.1201V14.4469ZM82.6468 17.9537H79.3587L78.7845 19.8131H76.221L79.8714 9.85999H82.1273L85.805 19.8131H83.2279L82.6468 17.9537ZM79.9329 16.1012H82.0726L80.9993 12.649L79.9329 16.1012ZM90.3747 16.2994H89.0759V19.8131H86.6764V9.85999H90.5934C91.7738 9.85999 92.6966 10.122 93.362 10.6461C94.0274 11.1702 94.36 11.9108 94.36 12.8678C94.36 13.5605 94.2188 14.1347 93.9362 14.5905C93.6582 15.0462 93.2207 15.4153 92.6237 15.6979L94.7018 19.7106V19.8131H92.1315L90.3747 16.2994ZM89.0759 14.4469H90.5934C91.0492 14.4469 91.391 14.3284 91.6188 14.0914C91.8512 13.8499 91.9675 13.5149 91.9675 13.0865C91.9675 12.6582 91.8512 12.3232 91.6188 12.0817C91.3864 11.8356 91.0446 11.7125 90.5934 11.7125H89.0759V14.4469ZM102.122 15.5953H98.3487V17.9674H102.806V19.8131H95.9493V9.85999H102.819V11.7125H98.3487V13.8112H102.122V15.5953Z" fill="white"/>
</svg>
