<svg width="170" height="33" viewBox="0 0 170 33" fill="none" xmlns="http://www.w3.org/2000/svg">
<path d="M0 0H170V23.9311C170 28.9017 165.971 32.9311 161 32.9311H9C4.02944 32.9311 0 28.9017 0 23.9311V0Z" fill="#2187D3"/>
<path d="M51.5586 9.85999V16.3746C51.5586 17.1129 51.4014 17.7532 51.0869 18.2955C50.7725 18.8333 50.3213 19.2434 49.7334 19.526C49.1455 19.8086 48.4505 19.9498 47.6484 19.9498C46.4362 19.9498 45.4814 19.6354 44.7842 19.0065C44.0869 18.3776 43.7314 17.5162 43.7178 16.4225V9.85999H46.1309V16.4703C46.1582 17.5595 46.6641 18.1041 47.6484 18.1041C48.1452 18.1041 48.5212 17.9674 48.7764 17.694C49.0316 17.4205 49.1592 16.9762 49.1592 16.361V9.85999H51.5586ZM61.515 19.8131H59.1293L55.6019 13.6198V19.8131H53.2025V9.85999H55.6019L59.1224 16.0533V9.85999H61.515V19.8131ZM71.2253 16.443C71.1934 17.1357 71.0066 17.7487 70.6648 18.2819C70.323 18.8105 69.8422 19.2207 69.2224 19.5123C68.6071 19.804 67.903 19.9498 67.1101 19.9498C65.8021 19.9498 64.7722 19.5237 64.0202 18.6715C63.2683 17.8193 62.8923 16.6162 62.8923 15.0621V14.5699C62.8923 13.5947 63.0609 12.7425 63.3982 12.0133C63.74 11.2796 64.2299 10.7145 64.8679 10.318C65.5059 9.91695 66.2442 9.71643 67.0827 9.71643C68.2904 9.71643 69.2611 10.0354 69.9948 10.6735C70.7286 11.3069 71.1456 12.1819 71.2458 13.2985H68.8532C68.835 12.6923 68.6823 12.2571 68.3952 11.9928C68.1081 11.7285 67.6706 11.5963 67.0827 11.5963C66.4857 11.5963 66.0482 11.8196 65.7702 12.2662C65.4922 12.7128 65.3464 13.4261 65.3327 14.4059V15.11C65.3327 16.1718 65.4649 16.9306 65.7292 17.3864C65.9981 17.8421 66.4584 18.0699 67.1101 18.0699C67.6615 18.0699 68.0831 17.9401 68.3747 17.6803C68.6664 17.4205 68.8213 17.0081 68.8396 16.443H71.2253ZM80.9288 15.0416C80.9288 16.0123 80.7488 16.8714 80.3888 17.6188C80.0287 18.3662 79.516 18.9427 78.8507 19.3483C78.1899 19.7493 77.4356 19.9498 76.588 19.9498C75.7403 19.9498 74.9884 19.7561 74.3321 19.3688C73.6759 18.9768 73.1632 18.4186 72.794 17.694C72.4294 16.9694 72.238 16.1377 72.2198 15.1989V14.6383C72.2198 13.663 72.3975 12.804 72.753 12.0612C73.113 11.3138 73.6257 10.7373 74.2911 10.3317C74.961 9.92607 75.7221 9.72327 76.5743 9.72327C77.4174 9.72327 78.1693 9.92379 78.8302 10.3248C79.491 10.7259 80.0037 11.2978 80.3682 12.0406C80.7374 12.7789 80.9242 13.6266 80.9288 14.5836V15.0416ZM78.4884 14.6246C78.4884 13.6357 78.322 12.886 77.9893 12.3756C77.6612 11.8606 77.1895 11.6031 76.5743 11.6031C75.3712 11.6031 74.7354 12.5055 74.6671 14.3102L74.6602 15.0416C74.6602 16.0169 74.822 16.7666 75.1456 17.2906C75.4692 17.8147 75.9499 18.0768 76.588 18.0768C77.1941 18.0768 77.6612 17.8193 77.9893 17.3043C78.3175 16.7893 78.4838 16.0488 78.4884 15.0826V14.6246ZM85.4575 9.85999L87.6791 16.7848L89.894 9.85999H93.0522V19.8131H90.6459V17.4889L90.8784 12.7311L88.4721 19.8131H86.8862L84.4731 12.7242L84.7055 17.4889V19.8131H82.3061V9.85999H85.4575ZM97.8748 9.85999L100.096 16.7848L102.311 9.85999H105.47V19.8131H103.063V17.4889L103.296 12.7311L100.889 19.8131H99.3035L96.8904 12.7242L97.1229 17.4889V19.8131H94.7234V9.85999H97.8748ZM115.569 15.0416C115.569 16.0123 115.389 16.8714 115.029 17.6188C114.669 18.3662 114.157 18.9427 113.491 19.3483C112.831 19.7493 112.076 19.9498 111.229 19.9498C110.381 19.9498 109.629 19.7561 108.973 19.3688C108.317 18.9768 107.804 18.4186 107.435 17.694C107.07 16.9694 106.879 16.1377 106.861 15.1989V14.6383C106.861 13.663 107.038 12.804 107.394 12.0612C107.754 11.3138 108.266 10.7373 108.932 10.3317C109.602 9.92607 110.363 9.72327 111.215 9.72327C112.058 9.72327 112.81 9.92379 113.471 10.3248C114.132 10.7259 114.644 11.2978 115.009 12.0406C115.378 12.7789 115.565 13.6266 115.569 14.5836V15.0416ZM113.129 14.6246C113.129 13.6357 112.963 12.886 112.63 12.3756C112.302 11.8606 111.83 11.6031 111.215 11.6031C110.012 11.6031 109.376 12.5055 109.308 14.3102L109.301 15.0416C109.301 16.0169 109.463 16.7666 109.786 17.2906C110.11 17.8147 110.591 18.0768 111.229 18.0768C111.835 18.0768 112.302 17.8193 112.63 17.3043C112.958 16.7893 113.125 16.0488 113.129 15.0826V14.6246ZM125.259 19.8131H122.874L119.346 13.6198V19.8131H116.947V9.85999H119.346L122.867 16.0533V9.85999H125.259V19.8131Z" fill="white"/>
</svg>
