<svg width="170" height="33" viewBox="0 0 170 33" fill="none" xmlns="http://www.w3.org/2000/svg">
<path d="M0 0H170V23.9311C170 28.9017 165.971 32.9311 161 32.9311H9C4.02944 32.9311 0 28.9017 0 23.9311V0Z" fill="#FE9923"/>
<path d="M48.2574 17.9674H52.4341V19.8131H45.858V9.85999H48.2574V17.9674ZM59.7587 15.5953H55.9853V17.9674H60.4423V19.8131H53.5859V9.85999H60.456V11.7125H55.9853V13.8112H59.7587V15.5953ZM69.7083 18.5826C69.3391 18.9928 68.7991 19.3232 68.0882 19.5739C67.3772 19.8245 66.5979 19.9498 65.7503 19.9498C64.4469 19.9498 63.4055 19.5511 62.6262 18.7535C61.847 17.956 61.43 16.8463 61.3753 15.4244L61.3684 14.5631C61.3684 13.5833 61.5416 12.7288 61.888 11.9996C62.2343 11.2659 62.7288 10.7031 63.3714 10.3112C64.0185 9.91467 64.7659 9.71643 65.6136 9.71643C66.8531 9.71643 67.8147 10.0013 68.4983 10.5709C69.1865 11.136 69.5875 11.9814 69.7014 13.1071H67.3909C67.3089 12.5511 67.1311 12.1546 66.8577 11.9176C66.5843 11.6806 66.1969 11.5621 65.6956 11.5621C65.094 11.5621 64.6292 11.8173 64.3011 12.3278C63.9729 12.8382 63.8066 13.5673 63.802 14.5153V15.1168C63.802 16.1103 63.9706 16.8577 64.3079 17.359C64.6497 17.8558 65.1852 18.1041 65.9143 18.1041C66.5387 18.1041 67.0035 17.9651 67.3089 17.6871V16.1422H65.6409V14.4948H69.7083V18.5826ZM77.4157 15.5953H73.6422V17.9674H78.0993V19.8131H71.2428V9.85999H78.1129V11.7125H73.6422V13.8112H77.4157V15.5953ZM87.5293 19.8131H85.1436L81.6162 13.6198V19.8131H79.2168V9.85999H81.6162L85.1367 16.0533V9.85999H87.5293V19.8131ZM89.1869 19.8131V9.85999H92.3929C93.2725 9.85999 94.0632 10.0605 94.765 10.4615C95.4668 10.858 96.0137 11.4209 96.4056 12.15C96.8021 12.8746 97.0026 13.6881 97.0072 14.5905V15.0485C97.0072 15.9599 96.8135 16.778 96.4261 17.5026C96.0433 18.2226 95.501 18.7877 94.7992 19.1979C94.1019 19.6035 93.3226 19.8086 92.4613 19.8131H89.1869ZM91.5863 11.7125V17.9674H92.4203C93.1084 17.9674 93.6371 17.7236 94.0062 17.236C94.3754 16.7438 94.5599 16.0146 94.5599 15.0485V14.6178C94.5599 13.6562 94.3754 12.9316 94.0062 12.444C93.6371 11.9563 93.0993 11.7125 92.3929 11.7125H91.5863ZM103.881 17.9537H100.592L100.018 19.8131H97.4548L101.105 9.85999H103.361L107.039 19.8131H104.462L103.881 17.9537ZM101.167 16.1012H103.306L102.233 12.649L101.167 16.1012ZM111.608 16.2994H110.31V19.8131H107.91V9.85999H111.827C113.008 9.85999 113.93 10.122 114.596 10.6461C115.261 11.1702 115.594 11.9108 115.594 12.8678C115.594 13.5605 115.453 14.1347 115.17 14.5905C114.892 15.0462 114.455 15.4153 113.857 15.6979L115.936 19.7106V19.8131H113.365L111.608 16.2994ZM110.31 14.4469H111.827C112.283 14.4469 112.625 14.3284 112.853 14.0914C113.085 13.8499 113.201 13.5149 113.201 13.0865C113.201 12.6582 113.085 12.3232 112.853 12.0817C112.62 11.8356 112.278 11.7125 111.827 11.7125H110.31V14.4469ZM120.498 14.1803L122.331 9.85999H124.921L121.715 16.2379V19.8131H119.282V16.2379L116.082 9.85999H118.66L120.498 14.1803Z" fill="white"/>
</svg>
