<?xml version="1.0" encoding="iso-8859-1"?>
<!-- Generator: Adobe Illustrator 19.0.0, SVG Export Plug-In . SVG Version: 6.00 Build 0)  -->
<svg version="1.1" id="Capa_1" xmlns="http://www.w3.org/2000/svg" xmlns:xlink="http://www.w3.org/1999/xlink" x="0px" y="0px"
	 viewBox="0 0 512 512" style="enable-background:new 0 0 512 512;" xml:space="preserve" fill="white">
<g>
	<g>
		<path d="M89.945,54.74v212.852c0,23.031,2.856,45.925,8.349,68.139l64.214-64.213l64.213,64.213
			c5.493-22.214,8.349-45.107,8.349-68.138V54.74H89.945z"/>
	</g>
</g>
<g>
	<g>
		<path d="M162.507,313.942l-54.151,54.151c10.177,27.003,24.414,52.49,42.352,75.348l11.799,15.035l11.799-15.035
			c17.938-22.858,32.174-48.346,42.352-75.348L162.507,313.942z"/>
	</g>
</g>
<g>
	<g>
		<path d="M389.78,324.728l-0.686-2.626c-5.677-21.749-6.793-44.039-3.319-66.25l6.18-39.494h-107.17l6.177,39.494
			c3.475,22.21,2.358,44.5-3.318,66.252l-0.684,2.623c-15.919,61.001-0.962,126.026,40.01,173.94L338.37,512l11.399-13.332
			C390.741,450.753,405.698,385.728,389.78,324.728z"/>
	</g>
</g>
<g>
	<g>
		<path d="M383.803,129.393h-9.012V69.072c13.996-4.753,24.101-18.012,24.101-33.594C398.893,15.915,382.977,0,363.416,0h-50.093
			c-19.562,0-35.476,15.915-35.476,35.477c0,15.582,10.104,28.842,24.1,33.594v60.321h-9.012c-21.092,0-38.251,17.159-38.251,38.252
			v18.715h167.371v-18.715C422.055,146.552,404.896,129.393,383.803,129.393z"/>
	</g>
</g>
<g>
</g>
<g>
</g>
<g>
</g>
<g>
</g>
<g>
</g>
<g>
</g>
<g>
</g>
<g>
</g>
<g>
</g>
<g>
</g>
<g>
</g>
<g>
</g>
<g>
</g>
<g>
</g>
<g>
</g>
</svg>
