<?xml version="1.0" encoding="iso-8859-1"?>
<!-- Generator: Adobe Illustrator 19.0.0, SVG Export Plug-In . SVG Version: 6.00 Build 0)  -->
<svg version="1.1" id="Layer_1" xmlns="http://www.w3.org/2000/svg" xmlns:xlink="http://www.w3.org/1999/xlink" x="0px" y="0px"
	 viewBox="0 0 511.999 511.999" style="enable-background:new 0 0 511.999 511.999;" xml:space="preserve" fill="white">
<g>
	<g>
		<path d="M287.974,22.918c-11.181,0-20.278,9.098-20.278,20.279c0,11.181,9.096,20.279,20.278,20.279s20.279-9.098,20.279-20.279
			C308.253,32.016,299.155,22.918,287.974,22.918z M287.974,48.474c-2.91,0-5.278-2.368-5.278-5.279s2.368-5.279,5.278-5.279
			c2.912,0,5.279,2.368,5.279,5.279S290.885,48.474,287.974,48.474z"/>
	</g>
</g>
<g>
	<g>
		<path d="M262.936,119.636c-1.036-1.82-2.782-3.187-4.808-3.749c-2.015-0.56-4.217-0.289-6.044,0.735
			c-1.83,1.034-3.196,2.781-3.758,4.806c-0.56,2.015-0.29,4.217,0.744,6.046c1.034,1.83,2.781,3.196,4.796,3.756
			c2.025,0.562,4.226,0.293,6.056-0.742c1.82-1.037,3.186-2.784,3.746-4.799C264.23,123.664,263.96,121.463,262.936,119.636z"/>
	</g>
</g>
<g>
	<g>
		<path d="M317.969,137.941h-24.563c8.642-30.169,27.007-53.976,28.929-56.41c2.083-2.236,10.136-12.079,10.136-30.484
			c0-4.143-3.357-7.5-7.5-7.5s-7.5,3.357-7.5,7.5c0,13.18-5.491,19.579-6.096,20.242c-0.229,0.214-7.251,8.87-23.4,8.87
			c-20.382,0-36.963-16.581-36.963-36.962c0-5.813,1.403-11.58,4.037-16.741C261.725,19.269,271.174,15,281.423,15
			c13.205,0,25.341,7.21,31.672,18.816c1.983,3.637,6.539,4.978,10.175,2.993c3.637-1.983,4.977-6.539,2.993-10.175
			C317.303,10.206,300.121,0,281.423,0c-20.856,0-39.388,12.462-47.267,31.768c-6.589,14.273-20.401,52.045-13.562,106.169
			l-0.003,0.004H194.03c-15.911,0-28.856,12.945-28.856,28.856c0,15.275,11.933,27.809,26.965,28.788
			c0.146,6.854-0.213,12.446-0.591,18.292c-0.782,12.097-1.591,24.604,2.19,48.375c3.782,23.771,8.432,35.41,12.929,46.668
			c4.385,10.976,8.526,21.343,12.044,43.459c3.519,22.119,2.799,33.26,2.036,45.054c-0.781,12.098-1.59,24.606,2.191,48.38
			c3.782,23.771,8.432,35.411,12.929,46.668c1.375,3.443,2.674,6.695,3.968,10.324c2.022,5.678,7.098,9.194,12.859,9.194
			c0.888,0,15.139,0,13.94-14.254c-0.248-2.953-0.26-6.006-0.5-9.049c-0.877-11.074-1.783-22.525,1.996-46.177
			c3.533-22.117,7.682-32.48,12.073-43.454c4.505-11.254,9.163-22.892,12.961-46.661c3.797-23.77,2.997-36.277,2.223-48.375
			c-0.754-11.795-1.467-22.936,2.066-45.05c3.533-22.115,12.98-45.72,12.98-45.72c1.531-3.849-0.347-8.21-4.195-9.742
			c-3.851-1.528-8.21,0.348-9.742,4.195c0,0-10.058,25.133-13.855,48.899c-3.797,23.77-2.997,36.277-2.223,48.375
			c0.754,11.795,1.467,22.936-2.066,45.05c-3.533,22.118-7.297,32.643-12.074,43.455c-7.278,16.472-13.598,50.784-13.868,52.723
			c-0.021-1.432-1.577-21.252,5.066-49.257c2.797-11.795,5.452-24.047,5.469-48.118c0.011-17.055-1.383-27.938-2.899-36.199
			c4.863-3.708,8.02-9.543,8.02-16.117c0-9.221-6.192-17.009-14.632-19.462c-0.427-4.346-0.708-8.965-0.84-13.941
			c14.826-2.317,26.207-15.174,26.207-30.64c0-13.059-8.117-24.25-19.566-28.816c0.52-2.491,1.025-5.138,1.492-8.013h57.242
			c15.911,0,28.856-12.945,28.856-28.856C346.824,150.886,333.879,137.941,317.969,137.941z M239.481,61.832
			c7.509,19.471,26.408,33.326,48.493,33.326c2.637,0,5.236-0.21,7.793-0.593c-0.771,1.355-1.548,2.76-2.329,4.212
			c-23.251,2.27-45.227-10.177-55.455-30.652C238.461,65.933,238.963,63.837,239.481,61.832z M234.616,89.801
			c12.846,14.686,31.426,23.689,51.45,24.229c-3.16,7.358-6.038,15.401-8.201,23.908l-0.006,0.004h-42.145l-0.006-0.008
			C233.261,119.805,233.289,103.672,234.616,89.801z M242.847,393.642c-2.654,11.704-5.395,23.809-5.466,47.406
			c-3.092-20.534-2.399-31.29-1.665-42.647c0.782-12.097,1.591-24.606-2.19-48.378c-3.782-23.771-8.432-35.41-12.929-46.668
			c-4.385-10.976-8.526-21.343-12.044-43.459c-3.519-22.118-2.799-33.257-2.036-45.051c0.378-5.843,0.763-11.849,0.625-19.191
			h38.367c-0.378,2.113-0.776,4.108-1.182,6.012c-15.479,1.726-27.555,14.885-27.555,30.817c0,13.521,8.7,25.041,20.793,29.276
			c0.119,5.995,0.427,11.552,0.939,16.76c-6.521,3.375-10.996,10.173-10.996,18.008c0,10.417,7.898,19.016,18.018,20.145
			c1.294,7.422,2.428,17.191,2.418,32.161C247.93,371.227,245.461,382.115,242.847,393.642z M253.065,296.524
			c0,2.911-2.368,5.279-5.278,5.279c-2.911,0-5.279-2.368-5.279-5.279c0-2.91,2.368-5.278,5.279-5.278
			C250.697,291.246,253.065,293.614,253.065,296.524z M263.8,232.481c0,8.83-7.184,16.015-16.014,16.015
			s-16.015-7.185-16.015-16.015c0-8.83,7.185-16.015,16.015-16.015S263.8,223.651,263.8,232.481z M317.969,180.653H194.03
			c-7.641,0-13.856-6.216-13.856-13.856c0-7.64,6.216-13.856,13.856-13.856h123.937c7.641,0,13.856,6.216,13.856,13.856
			C331.823,174.437,325.608,180.653,317.969,180.653z"/>
	</g>
</g>
<g>
</g>
<g>
</g>
<g>
</g>
<g>
</g>
<g>
</g>
<g>
</g>
<g>
</g>
<g>
</g>
<g>
</g>
<g>
</g>
<g>
</g>
<g>
</g>
<g>
</g>
<g>
</g>
<g>
</g>
</svg>
