<svg id="Capa_1" enable-background="new 0 0 512 512" height="512" viewBox="0 0 512 512" width="512" xmlns="http://www.w3.org/2000/svg" fill="white"><g><path d="m241 0h30v91h-30z"/><path d="m96.151 46.004h29.997v70.289h-29.997z" transform="matrix(.707 -.707 .707 .707 -24.826 102.362)"/><path d="m365.706 66.151h70.289v29.997h-70.289z" transform="matrix(.707 -.707 .707 .707 60.026 307.213)"/><path d="m286 151 61.62 82.169 82.169-82.169z"/><path d="m316.005 241-60.005-79.995-60.005 79.995z"/><path d="m226 151h-143.789l82.169 82.169z"/><path d="m186.956 271 69.044 231.645 69.044-231.645z"/><path d="m56.97 168.181-56.97 72.819h129.789z"/><path d="m382.211 241h129.789l-56.988-72.801z"/><path d="m284.519 511.949 225.313-240.949h-153.104z"/><path d="m227.5 512-72.228-241h-153.122z"/></g></svg>