<svg id="Capa_1" enable-background="new 0 0 511.51 511.51" height="512" viewBox="0 0 511.51 511.51" width="512" xmlns="http://www.w3.org/2000/svg"><g id="XMLID_87_"><path id="XMLID_88_" d="m477.14 175.063c-11.974-57.481-45.615-106.86-94.727-139.039s-107.815-43.307-165.297-31.333c-29.046 6.051-56.044 17.613-80.245 34.367l-10.224 7.077 17.986 40.38c24.756-11.116 51.944-16.739 81.074-16.739 7.699 0 15.288.473 22.75 1.368v-22.842h30v28.939c18.55 5.375 35.934 13.512 51.685 23.932l19.982-25.912 23.757 18.32-20.091 26.053c13.047 11.951 24.422 25.698 33.733 40.845l29.792-8.691 8.401 28.799-24.357 7.105c9.113 22.185 14.152 46.456 14.152 71.887v31.476h54.75l3.111-10.875c9.714-33.965 11.017-70.314 3.768-105.117z"/><path id="XMLID_90_" d="m385.511 259.58c0-88.116-71.688-159.805-159.804-159.805-46.49 0-109.189 17.224-152.137 96.167 26.896 24.184 57.638 41.365 91.682 51.212 9.444-7.472 21.36-11.95 34.31-11.95 30.551 0 55.406 24.855 55.406 55.406 0 20.118-10.78 37.763-26.864 47.47 12.861 13.456 22.032 31.115 24.131 47.183 9.83 75.222 52.866 119.021 54.693 120.849l4.392 4.393h26.571c14.955 0 29.402-3.169 42.943-9.419 13.388-6.161 25.516-15.341 35.089-26.555l7.347-8.607-6.258-9.428c-20.893-31.473-31.501-54.078-31.501-90.284z"/><path id="XMLID_107_" d="m144.155 290.611c0-6.188 1.035-12.135 2.915-17.697-40.823-13.535-77.181-36.641-108.285-68.879l-.29-.31-3.513-3.853-.282 2.167c-.335 2.564-.651 4.983-.95 7.287-1.814 13.981-2.966 23.474-3.545 32.148-1.056 15.811-.214 28.93 1.968 61.677l.985 14.82 8.957-.067c.323-.035 32.259.003 53.3 20.887 11.533 11.445 17.712 27.308 18.396 47.192l-7.924 8.265c-5.162 3.659-25.888 19.688-25.888 41.14v46.118h-36.827v30l73.958.005c50.494 0 80.64-24.236 80.64-64.831v-94.82-5.886c-29.724-.953-53.615-25.412-53.615-55.363z"/><path id="XMLID_109_" d="m199.562 316.018c14.009 0 25.406-11.397 25.406-25.407 0-14.009-11.397-25.406-25.406-25.406s-25.407 11.397-25.407 25.406 11.397 25.407 25.407 25.407z"/></g></svg>