<svg id="Capa_1" enable-background="new 0 0 511.886 511.886" height="512" viewBox="0 0 511.886 511.886" width="512" xmlns="http://www.w3.org/2000/svg" fill="white"><g><path d="m279.075 154.809 12.59-154.809h-71.445l12.591 154.809z"/><path d="m61.136 411.453v64.82l6.525 2.418c48.434 17.95 99.111 28.868 150.625 32.451l10.694.744v-65.161c-57.198-4.87-113.523-16.719-167.844-35.272z"/><path d="m282.906 446.053v65.832l10.694-.744c51.514-3.583 102.191-14.501 150.625-32.451l6.525-2.418v-65.445c-54.22 18.907-110.592 30.728-167.844 35.226z"/><path d="m305.789 253.732h51.044v57.746l-73.927 36.964v67.52c57.361-4.72 113.775-17.15 167.843-37.005v-135.225c0-52.033-20.264-100.953-57.059-137.747-21.9-21.9-48.107-37.913-76.698-47.312l-10.258 126.135h-101.582l-10.253-126.064c-77.605 25.672-133.763 98.886-133.763 184.988v135.938c54.184 19.433 110.548 31.85 167.843 36.947v-68.174l-73.927-36.964v-57.746h51.044c21.971 0 39.846 17.875 39.846 39.847h20c0-10.642 4.145-20.648 11.672-28.175 7.528-7.527 17.533-11.673 28.175-11.673z"/></g></svg>