<svg height="473pt" viewBox="-109 0 473 473.914" width="473pt" xmlns="http://www.w3.org/2000/svg" fill="white"><path d="m167.265625 141.914062h-79.40625l5.824219 39h67.761718zm0 0"/><path d="m74.5625 194.914062h106v25h-106zm0 0"/><path d="m103.929688 347.730469c12.273437 0 18.117187-3.855469 24.890624-8.316407 7.5625-4.976562 16.121094-10.621093 32.59375-10.621093 16.472657 0 25.019532 5.644531 32.582032 10.621093 3.84375 2.535157 7.355468 4.867188 11.953125 6.414063l-29.757813-54.460937c-3.632812-6.578126-5.570312-13.960938-5.628906-21.476563v-35.976563h-86v35.980469c-.058594 7.511719-1.992188 14.894531-5.625 21.472657l-21.042969 38.46875c9.480469 1.859374 15.550781 5.902343 21.140625 9.578124 6.769532 4.460938 12.617188 8.316407 24.894532 8.316407zm0 0"/><path d="m250.902344 428.203125-36.296875-66.628906c-13.695313-.890625-21.410157-5.945313-28.273438-10.46875-6.777343-4.460938-12.625-8.3125-24.902343-8.3125-12.277344 0-18.128907 3.855469-24.898438 8.316406-7.558594 4.976563-16.128906 10.621094-32.601562 10.621094-16.472657 0-25.039063-5.640625-32.597657-10.617188-5.945312-3.917969-11.179687-7.355469-20.671875-8.140625l-46.441406 85.230469c-5.210938 9.574219-4.996094 21.183594.566406 30.558594 5.558594 9.378906 15.644532 15.132812 26.546875 15.152343h192.464844c10.898437-.019531 20.980469-5.777343 26.542969-15.152343 5.558594-9.375 5.773437-20.984375.5625-30.558594zm0 0"/><path d="m160.816406 91.109375c8.027344 0 14.535156-6.507813 14.535156-14.535156 0-8.027344-6.507812-14.535157-14.535156-14.535157s-14.535156 6.507813-14.535156 14.535157c.011719 8.023437 6.511719 14.523437 14.535156 14.535156zm0 0"/><path d="m80.863281 77.3125c6.191407.003906 11.214844-5.015625 11.214844-11.210938.003906-6.191406-5.019531-11.214843-11.210937-11.214843-6.191407 0-11.214844 5.019531-11.214844 11.214843.007812 6.1875 5.023437 11.203126 11.210937 11.210938zm0 0"/><path d="m129.3125 19.480469c5.382812 0 9.742188-4.359375 9.742188-9.742188 0-5.378906-4.359376-9.738281-9.742188-9.738281-5.378906 0-9.738281 4.359375-9.738281 9.738281.003906 5.378907 4.363281 9.734375 9.738281 9.742188zm0 0"/></svg>