<svg height="512" viewBox="0 0 34 56" width="512" xmlns="http://www.w3.org/2000/svg" ><g id="Page-1" fill="white" ><g id="026---Potion" ><rect id="Rectangle-path" height="3" rx="1" width="12" x="11" y="14"/><path id="Shape" d="m21.717 19h-9.434l-9.75 6h28.934z"/><path id="Shape" d="m12.809 12h8.382l2.054-9.581c.1265466-.59063673-.020625-1.20682665-.4004241-1.67652705s-.9515347-.74258854-1.5555759-.74247295h-8.578c-.6040412-.00011559-1.1757768.27277255-1.5555759.74247295s-.5269707 1.08589032-.4004241 1.67652705z"/><path id="Shape" d="m33.865 27h-33.73c-.08446198.2156239-.13016438.4444744-.135.676v17.253c0 .024.005.047.006.071h33.988c0-.024.006-.047.006-.071v-17.253c-.0048356-.2315256-.050538-.4603761-.135-.676zm-28.865 4h-2c-.55228475 0-1-.4477153-1-1s.44771525-1 1-1h2c.55228475 0 1 .4477153 1 1s-.44771525 1-1 1zm18 0h-14c-.55228475 0-1-.4477153-1-1s.44771525-1 1-1h14c.5522847 0 1 .4477153 1 1s-.4477153 1-1 1z"/><path id="Shape" d="m8.174 55.633c.18989212.2322359.47401245.3669545.774.367h16.1c.2999875-.0000455.5841079-.1347641.774-.367l7.068-8.633h-31.78z" /></g></g></svg>