<?xml version="1.0" encoding="iso-8859-1"?>
<!-- Generator: Adobe Illustrator 19.0.0, SVG Export Plug-In . SVG Version: 6.00 Build 0)  -->
<svg version="1.1" id="Capa_1" xmlns="http://www.w3.org/2000/svg" xmlns:xlink="http://www.w3.org/1999/xlink" x="0px" y="0px"
	 viewBox="0 0 512 512" style="enable-background:new 0 0 512 512;" xml:space="preserve" fill="white">
<g>
	<g>
		<g>
			<path d="M175.762,303.616l31.918,10.661l15.15-15.15l-10.648-31.909C196.829,275.643,184.196,288.269,175.762,303.616z"/>
			<path d="M336.201,303.616h0.018c-8.437-15.353-21.075-27.982-36.434-36.407l-10.651,31.918l15.15,15.15L336.201,303.616z"/>
			<path d="M272.064,292.571l10.862-32.512c-17.542-5.413-36.309-5.413-53.851,0l10.862,32.512H272.064z"/>
			<path d="M212.178,267.209l0.003,0.009c0.005-0.003,0.01-0.006,0.015-0.009H212.178z"/>
			<path d="M201.143,331.374l-32.53-10.862c-5.413,17.536-5.413,36.297,0,53.833l32.53-10.862V331.374z"/>
			<path d="M236.434,383.442c0.055,0,0.11,0,0.165,0c0.316,0.161,0.621,0.341,0.914,0.539h36.992
				c0.293-0.199,0.599-0.379,0.914-0.539c0.055,0,0.11,0,0.165,0l16.457-16.448c0-0.055,0-0.119,0-0.174
				c0.161-0.316,0.341-0.621,0.539-0.914v-36.864c-0.203-0.329-0.383-0.671-0.539-1.024c0-0.055,0-0.119,0-0.174l-16.457-16.457
				c-0.064,0-0.119,0-0.174,0c-0.316-0.161-0.621-0.341-0.914-0.539h-36.974c-0.293,0.199-0.599,0.379-0.914,0.539
				c-0.055,0-0.11,0-0.174,0l-16.457,16.457c0,0.055,0,0.119,0,0.174c-0.156,0.353-0.336,0.695-0.539,1.024v36.855
				c0.199,0.293,0.379,0.599,0.539,0.914c0,0.055,0,0.119,0,0.174L236.434,383.442z"/>
			<path d="M175.781,391.241c8.432,15.35,21.064,27.979,36.416,36.407l10.651-31.918l-15.15-15.15L175.781,391.241z"/>
			<path d="M447.689,198.528c-3.346-48.421-89.618-88.814-191.689-88.814S67.657,150.107,64.311,198.528
				C97.307,161.573,170.971,137.143,256,137.143S414.693,161.573,447.689,198.528z"/>
			<path d="M256,73.143c-141.157,0-256,67.749-256,151.022c0,58.039,58.587,111.735,147.2,136.43
				c-2.738-21.199,0.957-42.732,10.606-61.806C88.357,279.991,45.714,243.31,45.714,201.362
				c0-61.641,92.343-109.934,210.286-109.934s210.286,48.293,210.286,109.934c0,41.947-42.642,78.665-112.091,97.426
				c9.665,19.069,13.376,40.602,10.651,61.806C453.413,335.899,512,282.203,512,224.165C512,140.891,397.157,73.143,256,73.143z"/>
			<path d="M310.857,331.374v32.11l32.512,10.862c5.413-17.536,5.413-36.297,0-53.833L310.857,331.374z"/>
			<path d="M289.152,395.73l10.651,31.918c15.352-8.428,27.984-21.057,36.416-36.407l-31.918-10.661L289.152,395.73z"/>
			<path d="M239.936,402.286l-10.862,32.512c17.542,5.413,36.309,5.413,53.851,0l-10.862-32.512H239.936z"/>
		</g>
	</g>
</g>
<g>
</g>
<g>
</g>
<g>
</g>
<g>
</g>
<g>
</g>
<g>
</g>
<g>
</g>
<g>
</g>
<g>
</g>
<g>
</g>
<g>
</g>
<g>
</g>
<g>
</g>
<g>
</g>
<g>
</g>
</svg>
