<svg id="Capa_1" enable-background="new 0 0 512 512" height="512" viewBox="0 0 512 512" width="512" xmlns="http://www.w3.org/2000/svg" fill="white"><g><path d="m16.201 436.664c-10.316 8.02-16.371 20.608-16.197 33.674.3 22.479 18.136 40.648 40.602 41.364l.522.017c.442.014.883.021 1.324.021 12.888 0 25.191-5.992 33.127-16.201l5.394-6.938-57.549-57.549z"/><path d="m47.26 412.52 52.243 52.242 19.189-24.684-46.748-46.747z"/><path d="m270.825 388.561 11.962-8.327c41.163-28.649 61.448-55.718 71.217-73.381 13.988-25.289 22.718-48.922 26.107-70.539l-109.286 95.454z"/><path d="m240.865 170.576v-75.788h-105.913v114.697c0 25.489 4.676 49.124 13.169 67.948z"/><path d="m240.865 387.585v-29.647l-14.498 12.662s11.968 12.843 14.498 16.985z"/><path d="m93.237 263.413c6.584 0 13.008 1.024 19.105 2.969-4.354-15.535-7.35-34.384-7.35-56.898v-144.656h227.655l56.04-64.567h-350.953v209.223c0 24.885 3.394 49.481 10.089 73.46.375-.395.739-.798 1.127-1.186 11.829-11.83 27.558-18.345 44.287-18.345z"/><path d="m270.825 136.058 35.819-41.27h-35.819z"/><path d="m411.691 216.475c0 31.84-10.588 67.126-31.469 104.879-20.489 37.046-54.987 65.84-80.318 83.47l-43.205 30.072-7.552-4.239c-2.078 12.409-7.877 24.311-17.432 33.866-6.162 6.162-13.388 10.867-21.256 13.975l45.31 32.718 89.139-63.259c39.928-28.336 72.766-64.943 94.964-105.863 22.298-41.105 34.084-86.961 34.084-132.611v-55.136l-62.265 54.385z"/><path d="m162.289 306.521 42.972 42.973 306.739-266.354v-82.879h-85.443z"/><path d="m211.209 396.453-94.189-94.189c-13.135-13.135-34.43-13.135-47.565 0s-13.135 34.43 0 47.565l94.189 94.189c13.135 13.135 34.43 13.135 47.565 0s13.135-34.43 0-47.565z"/></g></svg>