<svg width="48" height="45" viewBox="0 0 48 45"  xmlns="http://www.w3.org/2000/svg">
<path fill="#a17e25" d="M47.5085 36.2464L35.9875 30.8351V17.682C35.9873 17.5146 35.9345 17.3515 35.8367 17.2159L34.4904 15.3212L38.8348 8.03798H45.5852C45.7594 8.03767 45.9288 7.98017 46.0675 7.87425C46.2062 7.76832 46.3067 7.61975 46.3537 7.45116C46.4006 7.28256 46.3915 7.10317 46.3277 6.94027C46.2638 6.77737 46.1488 6.63989 46 6.54874L35.6066 0.118096C35.4223 0.00607327 35.2012 -0.0279906 34.9919 0.0233609C34.5922 0.125675 25.0963 2.57364 17.8255 9.87585C17.7316 9.96953 17.6629 10.0855 17.6256 10.2131L12.1272 28.3606L0.455413 33.8325C0.360628 33.8776 0.275642 33.941 0.205339 34.0192C0.135036 34.0974 0.0808028 34.1888 0.0457574 34.2881C0.010712 34.3874 -0.00445477 34.4927 0.00112906 34.5979C0.00671289 34.7031 0.0329372 34.8062 0.0782944 34.9012C0.11216 34.9763 0.158017 35.0455 0.214057 35.1058C2.11148 37.0382 4.25592 38.7087 6.59113 40.0737C11.8445 43.2653 17.8601 44.9676 23.9989 45C29.9688 45.0087 35.8735 43.7523 41.3275 41.3128C45.3778 39.4826 47.6103 37.6636 47.7046 37.5841C47.81 37.4984 47.8919 37.3871 47.9425 37.2608C47.9931 37.1344 48.0107 36.9972 47.9937 36.862C47.9767 36.7269 47.9256 36.5984 47.8454 36.4887C47.7651 36.3789 47.6582 36.2916 47.5349 36.235L47.5085 36.2464ZM18.8475 30.081C17.1044 29.7194 15.3997 29.1916 13.7564 28.5046L14.5596 25.852C16.7017 26.7046 21.3817 28.1257 28.5922 28.1257C30.3685 28.1257 32.3031 28.0385 34.3885 27.8339V30.6305C27.4458 31.4528 22.1209 30.7972 18.8475 30.081Z" />
</svg>
