<svg width="22" height="22" viewBox="0 0 22 22" fill="none" xmlns="http://www.w3.org/2000/svg">
<g clip-path="url(#clip0)">
<path d="M19.9416 15.7746H16.4691C15.7499 15.7746 15.1669 15.1916 15.1669 14.4724V13.1703H21.2437V14.4724C21.2437 15.1916 20.6607 15.7746 19.9416 15.7746Z" fill="#F6E266"/>
<path d="M20.2454 13.1703V14.4724C20.2454 15.1916 19.6624 15.7746 18.9432 15.7746H19.9415C20.6607 15.7746 21.2437 15.1916 21.2437 14.4724V13.1703H20.2454Z" fill="#F1D333"/>
<path d="M10.1319 4.31558H11.8681V18.2053H10.1319V4.31558Z" fill="#F6E266"/>
<path d="M10.1319 17.2504H11.8681V18.2053H10.1319V17.2504Z" fill="#F1D333"/>
<path d="M14.9065 18.2053V19.9415H7.09349V18.2053H14.9065Z" fill="#E49542"/>
<path d="M14.9065 19.0734V19.9415H7.09356V19.0734H14.9065Z" fill="#E28424"/>
<path d="M16.2087 19.9415V21.6778H5.79138V19.9415H16.2087Z" fill="#F6E266"/>
<path d="M20.3322 4.66278C20.3322 5.04632 20.0213 5.35729 19.6377 5.35729H15.3406C15.1564 5.35729 14.9797 5.28411 14.8495 5.15387L14.0112 4.31555H7.98887L7.15055 5.15387C7.02036 5.28411 6.84367 5.35729 6.65951 5.35729H2.36237C1.97883 5.35729 1.66787 5.04636 1.66787 4.66278C1.66787 4.27924 1.97879 3.96828 2.36237 3.96828H6.37187L7.21019 3.12996C7.34039 2.99972 7.51708 2.92654 7.70124 2.92654H14.2989C14.483 2.92654 14.6597 2.99972 14.7899 3.12996L15.6282 3.96828H19.6377C20.0213 3.96832 20.3322 4.27924 20.3322 4.66278Z" fill="#E49542"/>
<path d="M11 2.9266C11.7191 2.9266 12.3021 2.3436 12.3021 1.62443C12.3021 0.905266 11.7191 0.322266 11 0.322266C10.2808 0.322266 9.69781 0.905266 9.69781 1.62443C9.69781 2.3436 10.2808 2.9266 11 2.9266Z" fill="#F6E266"/>
<path d="M11.5895 0.464233C11.6791 0.640792 11.7298 0.840468 11.7298 1.05205C11.7298 1.77121 11.1468 2.35421 10.4276 2.35421C10.216 2.35421 10.0164 2.30355 9.8398 2.21396C10.0549 2.6366 10.4932 2.9266 11 2.9266C11.7192 2.9266 12.3022 2.3436 12.3022 1.62443C12.3022 1.11766 12.0122 0.679378 11.5895 0.464233Z" fill="#F1D333"/>
<path d="M14.7329 11.7813H21.6777V13.1703H14.7329V11.7813Z" fill="#E49542"/>
<path d="M20.636 11.7813H21.6777V13.1703H20.636V11.7813Z" fill="#E28424"/>
<path d="M5.53091 15.7746H2.05848C1.33931 15.7746 0.75631 15.1916 0.75631 14.4724V13.1703H6.83308V14.4724C6.83303 15.1916 6.25004 15.7746 5.53091 15.7746Z" fill="#F6E266"/>
<path d="M5.83481 13.1703V14.4724C5.83481 15.1916 5.25181 15.7746 4.53264 15.7746H5.53098C6.25014 15.7746 6.83314 15.1916 6.83314 14.4724V13.1703H5.83481Z" fill="#F1D333"/>
<path d="M0.322266 11.7813H7.26713V13.1703H0.322266V11.7813Z" fill="#E49542"/>
<path d="M6.22542 11.7813H7.26715V13.1703H6.22542V11.7813Z" fill="#E28424"/>
<path fill-rule="evenodd" clip-rule="evenodd" d="M21.6777 11.459H21.0267L18.6837 5.67961H19.6376C20.1981 5.67961 20.6542 5.22354 20.6542 4.66297C20.6542 4.10214 20.1981 3.6459 19.6376 3.6459H15.7617L15.0178 2.90198C14.8259 2.71008 14.5705 2.60438 14.2988 2.60438H12.2946C12.5014 2.33179 12.6245 1.99225 12.6245 1.62443C12.6244 0.728707 11.8957 0 11 0C10.1043 0 9.37557 0.728707 9.37557 1.62443C9.37557 1.99225 9.49863 2.33174 9.70548 2.60438H7.70129C7.42955 2.60438 7.17415 2.71008 6.98225 2.90198L6.23838 3.6459H5.42738C5.24936 3.6459 5.10512 3.79014 5.10512 3.96816C5.10512 4.14618 5.24936 4.29043 5.42738 4.29043H6.37184C6.4573 4.29043 6.53924 4.25648 6.59974 4.19607L7.43806 3.35775C7.50823 3.28754 7.60173 3.24891 7.70133 3.24891H14.2987C14.3983 3.24891 14.4918 3.28754 14.562 3.35775L15.4003 4.19607C15.4608 4.25648 15.5427 4.29043 15.6282 4.29043H19.6376C19.8428 4.29043 20.0097 4.45758 20.0097 4.66297C20.0097 4.86814 19.8428 5.03508 19.6376 5.03508H15.3407C15.2412 5.03508 15.1479 4.99641 15.0775 4.92585L14.2392 4.08749C14.1787 4.02703 14.0968 3.99309 14.0113 3.99309H7.98875C7.90329 3.99309 7.82134 4.02703 7.76084 4.08749L6.92218 4.9262C6.85218 4.99641 6.75881 5.03508 6.6593 5.03508H2.36242C2.15725 5.03508 1.99031 4.86814 1.99031 4.66297C1.99031 4.56341 2.02894 4.46991 2.09911 4.39974C2.16962 4.32923 2.26312 4.29043 2.36242 4.29043H3.92348C4.1015 4.29043 4.24574 4.14618 4.24574 3.96816C4.24574 3.79014 4.1015 3.6459 3.92348 3.6459H2.36242C2.09103 3.6459 1.83567 3.75173 1.64338 3.94397C1.45148 4.13591 1.34578 4.39123 1.34578 4.66297C1.34578 5.22354 1.80185 5.67961 2.36242 5.67961H3.31633L0.973285 11.459H0.322266C0.144246 11.459 0 11.6033 0 11.7813V13.1703C0 13.3483 0.144246 13.4925 0.322266 13.4925H0.43407V14.4725C0.43407 15.3682 1.16278 16.0969 2.0585 16.0969H5.53094C6.42666 16.0969 7.15537 15.3682 7.15537 14.4725V13.4925H7.26718C7.4452 13.4925 7.58944 13.3483 7.58944 13.1703V11.7813C7.58944 11.6033 7.4452 11.459 7.26718 11.459H6.61616L4.27311 5.67961H6.65934C6.93142 5.67961 7.18687 5.57365 7.37834 5.38154L8.12221 4.63762H9.80964V17.883H7.0935C6.91548 17.883 6.77123 18.0273 6.77123 18.2053V19.6191H5.79133C5.61331 19.6191 5.46906 19.7633 5.46906 19.9414V21.6777C5.46906 21.8558 5.61331 22 5.79133 22H16.2087C16.3867 22 16.5309 21.8558 16.5309 21.6777V19.9414C16.5309 19.7633 16.3867 19.6191 16.2087 19.6191H15.2288V18.2053C15.2288 18.0273 15.0845 17.883 14.9065 17.883H12.1902V7.99219C12.1902 7.81417 12.046 7.66992 11.868 7.66992C11.6899 7.66992 11.5457 7.81417 11.5457 7.99219V17.883H10.4542V4.63762H11.5457V6.48828C11.5457 6.6663 11.6899 6.81055 11.868 6.81055C12.046 6.81055 12.1902 6.6663 12.1902 6.48828V4.63762H13.8777L14.6213 5.38123C14.8131 5.57369 15.0686 5.67961 15.3407 5.67961H17.7269L15.3839 11.459H14.7329C14.5548 11.459 14.4106 11.6033 14.4106 11.7813V13.1703C14.4106 13.3483 14.5548 13.4925 14.7329 13.4925H14.8447V14.4725C14.8447 15.3682 15.5734 16.0969 16.4691 16.0969H19.9415C20.8373 16.0969 21.566 15.3682 21.566 14.4725V13.4925H21.6778C21.8558 13.4925 22 13.3483 22 13.1703V11.7813C22 11.6033 21.8558 11.459 21.6777 11.459ZM11.9799 1.62443C11.9799 1.0841 11.5403 0.644531 11 0.644531C10.4597 0.644531 10.0201 1.08406 10.0201 1.62439C10.0201 2.16472 10.4597 2.60429 11 2.60429C11.5403 2.60429 11.9799 2.16477 11.9799 1.62443ZM5.53089 15.4523C6.07123 15.4523 6.5108 15.0127 6.5108 14.4724V13.4925H1.07856V14.4724C1.07856 15.0128 1.51817 15.4523 2.05846 15.4523H5.53089ZM0.644531 12.848H6.94487V12.1036H0.644531V12.848ZM3.7947 6.21504L1.66873 11.459H5.92062L3.7947 6.21504ZM9.96574 19.6191H14.5842L14.5842 18.5276H7.41572V19.6191H8.46179C8.63981 19.6191 8.78406 19.7633 8.78406 19.9414C8.78406 20.1194 8.63981 20.2636 8.46179 20.2636H6.11359V21.3555H15.8864V20.2636H9.96574C9.78772 20.2636 9.64348 20.1194 9.64348 19.9414C9.64348 19.7633 9.78772 19.6191 9.96574 19.6191ZM20.3313 11.459L18.2053 6.21504L16.0793 11.459H20.3313ZM21.3555 12.1036H15.0551V12.848H21.3555V12.1036ZM19.9415 15.4523C20.4818 15.4523 20.9214 15.0127 20.9214 14.4724V13.4925H15.4892V14.4724C15.4892 15.0128 15.9288 15.4523 16.4691 15.4523H19.9415Z" fill="#52514F"/>
</g>
<defs>
<clipPath id="clip0">
<rect width="22" height="22" fill="white"/>
</clipPath>
</defs>
</svg>
