<svg width="40" height="30" viewBox="0 0 40 30" fill="white" xmlns="http://www.w3.org/2000/svg">
<path d="M12.8125 14.5474C9.62469 14.5474 7.03125 17.2302 7.03125 20.528C7.03125 23.8257 9.62469 26.5086 12.8125 26.5086C16.0003 26.5086 18.5938 23.8257 18.5938 20.528C18.5938 17.2302 16.0003 14.5474 12.8125 14.5474ZM8.59375 20.528C8.59375 20.022 8.67836 19.5362 8.83219 19.0839L10.5087 20.0852C10.4829 20.2289 10.4688 20.3767 10.4688 20.528C10.4688 20.6793 10.483 20.8271 10.5087 20.9708L8.83219 21.972C8.67836 21.5198 8.59375 21.034 8.59375 20.528V20.528ZM12.8125 21.3362C12.3817 21.3362 12.0312 20.9736 12.0312 20.528C12.0312 20.0823 12.3817 19.7198 12.8125 19.7198C13.2433 19.7198 13.5938 20.0823 13.5938 20.528C13.5938 20.9736 13.2433 21.3362 12.8125 21.3362ZM15.1164 20.0852L16.7929 19.0839C16.9466 19.5362 17.0312 20.022 17.0312 20.528C17.0312 21.034 16.9466 21.5198 16.7928 21.972L15.1163 20.9708C15.1421 20.8271 15.1562 20.6793 15.1562 20.528C15.1562 20.3767 15.1421 20.2289 15.1164 20.0852ZM16.0095 17.6853L14.334 18.686C14.1176 18.4944 13.8673 18.3428 13.5938 18.2424V16.24C14.5523 16.4265 15.3971 16.9493 16.0095 17.6853V17.6853ZM12.0312 16.24V18.2424C11.7576 18.3428 11.5074 18.4944 11.291 18.686L9.61547 17.6853C10.2279 16.9493 11.0727 16.4265 12.0312 16.24V16.24ZM9.61547 23.3706L11.291 22.3699C11.5074 22.5615 11.7577 22.7131 12.0312 22.8135V24.816C11.0727 24.6294 10.2279 24.1066 9.61547 23.3706V23.3706ZM13.5938 24.816V22.8135C13.8674 22.7131 14.1176 22.5615 14.334 22.3699L16.0095 23.3706C15.3971 24.1066 14.5523 24.6294 13.5938 24.816V24.816Z"/>
<path d="M39.2188 18.1034H30.7812V4.84914C31.2127 4.84914 31.5625 4.48723 31.5625 4.04095V0.80819C31.5625 0.361907 31.2127 0 30.7812 0H19.1698C18.7383 0 18.3885 0.361907 18.3885 0.80819C18.3885 1.25447 18.7383 1.61638 19.1698 1.61638H30V3.23276H1.5625V1.61638H12.1385C12.57 1.61638 12.9198 1.25447 12.9198 0.80819C12.9198 0.361907 12.57 0 12.1385 0H0.78125C0.349766 0 0 0.361907 0 0.80819V4.04095C0 4.48723 0.349766 4.84914 0.78125 4.84914V18.1034C0.349766 18.1034 0 18.4654 0 18.9116V22.4676C0 22.914 0.349766 23.2758 0.78125 23.2758H4.31078C5.44344 27.0182 8.82633 29.7414 12.8125 29.7414C16.7987 29.7414 20.1815 27.0183 21.3141 23.2759H39.2188C39.6502 23.2759 40 22.914 40 22.4677V18.9116C40 18.4654 39.6502 18.1034 39.2188 18.1034ZM29.2188 18.1034H27.6562V4.84914H29.2188V18.1034ZM21.4052 18.1034C20.8782 16.107 19.7173 14.3786 18.1605 13.1654V4.84914H26.0938V18.1034H21.4052ZM16.598 4.84914V12.1896C16.0788 11.9363 15.5323 11.7335 14.9645 11.5872V4.84914H16.598ZM5.46875 15.3216V4.84914H13.402V11.3353C13.207 11.3221 13.0106 11.3147 12.8125 11.3147C9.76789 11.3147 7.07563 12.9036 5.46875 15.3216ZM2.34375 4.84914H3.90625V18.1034H2.34375V4.84914ZM1.5625 21.6594V19.7198H3.94094C3.91844 19.9862 3.90625 20.2557 3.90625 20.528C3.90625 20.911 3.92938 21.2885 3.97344 21.6594H1.5625ZM12.8125 28.125C8.76312 28.125 5.46875 24.717 5.46875 20.528C5.46875 16.339 8.76312 12.931 12.8125 12.931C16.8619 12.931 20.1562 16.339 20.1562 20.528C20.1562 24.717 16.8619 28.125 12.8125 28.125V28.125ZM38.4375 21.6595H21.6516C21.6957 21.2886 21.7188 20.911 21.7188 20.528C21.7188 20.2557 21.7066 19.9862 21.6841 19.7198H38.4375V21.6595Z"/>
<path d="M15.6538 1.61638C15.8601 1.61638 16.0608 1.5299 16.2069 1.3795C16.3522 1.22926 16.4351 1.02074 16.4351 0.80819C16.4351 0.595636 16.3523 0.387123 16.2069 0.2368C16.0608 0.0864763 15.8601 0 15.6538 0C15.4483 0 15.2468 0.0863955 15.1015 0.2368C14.9562 0.387123 14.8726 0.595636 14.8726 0.80819C14.8726 1.02074 14.9562 1.22926 15.1015 1.3795C15.2468 1.5299 15.4483 1.61638 15.6538 1.61638Z" /></svg>
