<svg width="35" height="37" viewBox="0 0 35 37" fill="none" xmlns="http://www.w3.org/2000/svg">
<path d="M14.4922 27.3345V29.5024C14.4922 31.9739 11.3477 33.8384 7.24609 33.8384C3.14453 33.8384 0 31.9739 0 29.5024V27.3345H14.4922Z" fill="#FEA832"/>
<path d="M14.4922 27.3345V29.5024C14.4922 31.9739 11.3477 33.8384 7.24609 33.8384V27.3345H14.4922Z" fill="#FE9923"/>
<path d="M14.4922 25.1665V27.3345C14.4922 29.806 11.3477 31.6704 7.24609 31.6704C3.14453 31.6704 0 29.806 0 27.3345V25.1665H14.4922Z" fill="#FEA832"/>
<path d="M14.4922 25.1665V27.3345C14.4922 29.806 11.3477 31.6704 7.24609 31.6704V25.1665H14.4922Z" fill="#FE9923"/>
<path d="M14.4922 25.1665V27.3345C14.4922 29.806 11.3477 31.6704 7.24609 31.6704C3.14453 31.6704 0 29.806 0 27.3345V25.1665H14.4922Z" fill="#FEDB41"/>
<path d="M14.4922 25.1665V27.3345C14.4922 29.806 11.3477 31.6704 7.24609 31.6704V25.1665H14.4922Z" fill="#FFCC33"/>
<path d="M14.4922 22.9985V25.1665C14.4922 27.638 11.3477 29.5024 7.24609 29.5024C3.14453 29.5024 0 27.638 0 25.1665V22.9985H14.4922Z" fill="#FEA832"/>
<path d="M14.4922 22.9985V25.1665C14.4922 27.638 11.3477 29.5024 7.24609 29.5024V22.9985H14.4922Z" fill="#FE9923"/>
<path d="M14.4922 20.8306V22.9985C14.4922 25.47 11.3477 27.3345 7.24609 27.3345C3.14453 27.3345 0 25.47 0 22.9985V20.8306H14.4922Z" fill="#FEDB41"/>
<path d="M14.4922 20.8306V22.9985C14.4922 25.47 11.3477 27.3345 7.24609 27.3345V20.8306H14.4922Z" fill="#FFCC33"/>
<path d="M14.4922 18.6626V20.8306C14.4922 23.3021 11.3477 25.1665 7.24609 25.1665C3.14453 25.1665 0 23.3021 0 20.8306V18.6626H14.4922Z" fill="#FEA832"/>
<path d="M14.4922 18.6626V20.8306C14.4922 23.3021 11.3477 25.1665 7.24609 25.1665V18.6626H14.4922Z" fill="#FE9923"/>
<path d="M14.4922 16.4946V18.6626C14.4922 21.1341 11.3477 22.9985 7.24609 22.9985C3.14453 22.9985 0 21.1341 0 18.6626V16.4946H14.4922Z" fill="#FEDB41"/>
<path d="M14.4922 16.4946V18.6626C14.4922 21.1341 11.3477 22.9985 7.24609 22.9985V16.4946H14.4922Z" fill="#FFCC33"/>
<path d="M14.4922 14.3267V16.4946C14.4922 18.9661 11.3477 20.8306 7.24609 20.8306C3.14453 20.8306 0 18.9661 0 16.4946V14.3267H14.4922Z" fill="#FEA832"/>
<path d="M14.4922 14.3267V16.4946C14.4922 18.9661 11.3477 20.8306 7.24609 20.8306V14.3267H14.4922Z" fill="#FE9923"/>
<path d="M14.4922 12.1587V14.3267C14.4922 16.7981 11.3477 18.6626 7.24609 18.6626C3.14453 18.6626 0 16.7981 0 14.3267V12.1587H14.4922Z" fill="#FEDB41"/>
<path d="M14.4922 12.1587V14.3267C14.4922 16.7981 11.3477 18.6626 7.24609 18.6626V12.1587H14.4922Z" fill="#FFCC33"/>
<path d="M14.4922 9.99072V12.1587C14.4922 14.6302 11.3477 16.4946 7.24609 16.4946C3.14453 16.4946 0 14.6302 0 12.1587V9.99072H14.4922Z" fill="#FEA832"/>
<path d="M14.4922 9.99072V12.1587C14.4922 14.6302 11.3477 16.4946 7.24609 16.4946V9.99072H14.4922Z" fill="#FE9923"/>
<path d="M14.4922 7.82275V9.99072C14.4922 12.4622 11.3477 14.3267 7.24609 14.3267C3.14453 14.3267 0 12.4622 0 9.99072V7.82275H14.4922Z" fill="#FEDB41"/>
<path d="M14.4922 7.82275V9.99072C14.4922 12.4622 11.3477 14.3267 7.24609 14.3267V7.82275H14.4922Z" fill="#FFCC33"/>
<path d="M14.4922 5.65479V7.82275C14.4922 10.2942 11.3477 12.1587 7.24609 12.1587C3.14453 12.1587 0 10.2942 0 7.82275V5.65479H14.4922Z" fill="#FEA832"/>
<path d="M14.4922 5.65479V7.82275C14.4922 10.2942 11.3477 12.1587 7.24609 12.1587V5.65479H14.4922Z" fill="#FE9923"/>
<path d="M7.24609 1.31885C3.14453 1.31885 0 3.1833 0 5.65479C0 8.12627 3.14453 9.99072 7.24609 9.99072C11.3477 9.99072 14.4922 8.12627 14.4922 5.65479C14.4922 3.1833 11.3477 1.31885 7.24609 1.31885Z" fill="#FEDB41"/>
<path d="M14.4922 5.65479C14.4922 8.12627 11.3477 9.99072 7.24609 9.99072V1.31885C11.3477 1.31885 14.4922 3.1833 14.4922 5.65479Z" fill="#FFCC33"/>
<path d="M28.8477 27.3345V29.5024C28.8477 31.9739 25.7715 33.8384 21.6699 33.8384C17.5684 33.8384 14.4922 31.9739 14.4922 29.5024V27.3345H28.8477Z" fill="#FEA832"/>
<path d="M28.8477 27.3345V29.5024C28.8477 31.9739 25.7715 33.8384 21.6699 33.8384V27.3345H28.8477Z" fill="#FE9923"/>
<path d="M28.8477 25.1665V27.3345C28.8477 29.806 25.7715 31.6704 21.6699 31.6704C17.5684 31.6704 14.4922 29.806 14.4922 27.3345V25.1665H28.8477Z" fill="#FEDB41"/>
<path d="M28.8477 25.1665V27.3345C28.8477 29.806 25.7715 31.6704 21.6699 31.6704V25.1665H28.8477Z" fill="#FFCC33"/>
<path d="M28.8477 22.9985V25.1665C28.8477 27.638 25.7715 29.5024 21.6699 29.5024C17.5684 29.5024 14.4922 27.638 14.4922 25.1665V22.9985H28.8477Z" fill="#FEA832"/>
<path d="M28.8477 22.9985V25.1665C28.8477 27.638 25.7715 29.5024 21.6699 29.5024V22.9985H28.8477Z" fill="#FE9923"/>
<path d="M28.8477 20.8306V22.9985C28.8477 25.47 25.7715 27.3345 21.6699 27.3345C17.5684 27.3345 14.4922 25.47 14.4922 22.9985V20.8306H28.8477Z" fill="#FEDB41"/>
<path d="M28.8477 20.8306V22.9985C28.8477 25.47 25.7715 27.3345 21.6699 27.3345V20.8306H28.8477Z" fill="#FFCC33"/>
<path d="M28.8477 18.6626V20.8306C28.8477 23.3021 25.7715 25.1665 21.6699 25.1665C17.5684 25.1665 14.4922 23.3021 14.4922 20.8306V18.6626H28.8477Z" fill="#FEA832"/>
<path d="M28.8477 18.6626V20.8306C28.8477 23.3021 25.7715 25.1665 21.6699 25.1665V18.6626H28.8477Z" fill="#FE9923"/>
<path d="M28.8477 16.4946V18.6626C28.8477 21.1341 25.7715 22.9985 21.6699 22.9985C17.5684 22.9985 14.4922 21.1341 14.4922 18.6626V16.4946H28.8477Z" fill="#FEDB41"/>
<path d="M28.8477 16.4946V18.6626C28.8477 21.1341 25.7715 22.9985 21.6699 22.9985V16.4946H28.8477Z" fill="#FFCC33"/>
<path d="M28.8477 14.3267V16.4946C28.8477 18.9661 25.7715 20.8306 21.6699 20.8306C17.5684 20.8306 14.4922 18.9661 14.4922 16.4946V14.3267H28.8477Z" fill="#FEA832"/>
<path d="M28.8477 14.3267V16.4946C28.8477 18.9661 25.7715 20.8306 21.6699 20.8306V14.3267H28.8477Z" fill="#FE9923"/>
<path d="M28.8477 12.1587V14.3267C28.8477 16.7981 25.7715 18.6626 21.6699 18.6626C17.5684 18.6626 14.4922 16.7981 14.4922 14.3267V12.1587H28.8477Z" fill="#FEDB41"/>
<path d="M28.8477 12.1587V14.3267C28.8477 16.7981 25.7715 18.6626 21.6699 18.6626V12.1587H28.8477Z" fill="#FFCC33"/>
<path d="M28.8477 9.99072V12.1587C28.8477 14.6302 25.7715 16.4946 21.6699 16.4946C17.5684 16.4946 14.4922 14.6302 14.4922 12.1587V9.99072H28.8477Z" fill="#FEA832"/>
<path d="M28.8477 9.99072V12.1587C28.8477 14.6302 25.7715 16.4946 21.6699 16.4946V9.99072H28.8477Z" fill="#FE9923"/>
<path d="M21.6699 5.65479C17.5684 5.65479 14.4922 7.51924 14.4922 9.99072C14.4922 12.4622 17.5684 14.3267 21.6699 14.3267C25.7715 14.3267 28.8477 12.4622 28.8477 9.99072C28.8477 7.51924 25.7715 5.65479 21.6699 5.65479Z" fill="#FEDB41"/>
<path d="M28.8477 9.99072C28.8477 12.4622 25.7715 14.3267 21.6699 14.3267V5.65479C25.7715 5.65479 28.8477 7.51924 28.8477 9.99072Z" fill="#FFCC33"/>
<path d="M26.7969 18.3374C22.2646 18.3374 18.5938 22.2181 18.5938 27.0093C18.5938 31.8006 22.2646 35.6812 26.7969 35.6812C31.3292 35.6812 35 31.8006 35 27.0093C35 22.2181 31.3292 18.3374 26.7969 18.3374Z" fill="#FEA832"/>
<path d="M35 27.0093C35 31.8006 31.3292 35.6812 26.7969 35.6812V18.3374C31.3292 18.3374 35 22.2181 35 27.0093Z" fill="#FE9923"/>
<path d="M26.7969 20.5054C23.413 20.5054 20.6445 23.4322 20.6445 27.0093C20.6445 30.5865 23.413 33.5132 26.7969 33.5132C30.1807 33.5132 32.9492 30.5865 32.9492 27.0093C32.9492 23.4322 30.1807 20.5054 26.7969 20.5054Z" fill="#FEDB41"/>
<path d="M32.9492 27.0093C32.9492 30.5865 30.1807 33.5132 26.7969 33.5132V20.5054C30.1807 20.5054 32.9492 23.4322 32.9492 27.0093Z" fill="#FFCC33"/>
</svg>
