<svg id="Layer_1" enable-background="new 0 0 512 512" height="512" viewBox="0 0 512 512" width="512" xmlns="http://www.w3.org/2000/svg"><g><g><path d="m326.739 406.283-20.708.007 30.697 98.209h40.376c0-17.131-3.589-33.436-10.035-48.219-8.654-19.848-22.617-37.202-40.33-49.997z" fill="#9ea2e3"/><path d="m185.32 406.289c-17.317 12.501-31.445 29.618-40.329 49.993-6.446 14.783-10.034 31.087-10.034 48.218h40.361l30.713-98.209z" fill="#8288cb"/></g><g><path d="m326.739 406.283c-9.081-6.557-19.158-11.927-30.01-15.813-4.63-1.658-9.39-3.035-14.25-4.123h-26.581l-20 65.067 20 53.086h80.83v-.014c0-36.24-3.78-66.538-9.989-98.203z" fill="#7ce3ff"/><path d="m205.959 446.781v57.719h49.939v-118.152z" fill="#ff8e9e"/><path d="m256.03 383.425c-26.424 0-50.858 8.536-70.709 22.864-.003.002.003-.002 0 0-6.35 31.921-10.002 62.777-10.002 98.211h10 20.641c.059-52.61 31.451-97.878 76.519-118.152-8.551-1.914-17.415-2.923-26.449-2.923z" fill="#ea5b70"/></g><g><g><path d="m138.978 215.331-28.075 35.798 145.128 175.126 70.708-19.972 1.611-.455c15.003-4.238 20.263-23.111 8.973-34.49 29.014-19.654 50.53-49.508 59.386-84.411 2.906-11.452 4.45-23.446 4.45-35.799 0-12.354-1.544-24.347-4.449-35.798-85.911.001-171.821.001-257.732.001z" fill="#d4d4ff"/></g><g><path d="m350.076 227.197c-8.626-34-35.211-60.826-69.061-69.824h-30l-72.003 93.755 71.992 93.751h30c33.879-9.008 60.449-35.836 69.071-69.819 1.943-7.656 2.975-15.674 2.975-23.932 0-8.259-1.032-16.276-2.974-23.931z" fill="#ffddcf"/><path d="m211.989 275.06c-1.942-7.655-2.978-15.672-2.978-23.931s1.035-16.276 2.977-23.931c8.623-33.991 35.191-60.818 69.025-69.824-2.918-.776-5.884-1.434-8.904-1.938-5.231-.873-10.602-1.327-16.081-1.327-45.322 0-83.383 31.08-94.041 73.089-1.942 7.655-2.977 15.672-2.977 23.931s1.035 16.276 2.978 23.931c10.658 42.008 48.719 73.087 94.041 73.087 5.479 0 10.85-.457 16.081-1.33 3.016-.504 5.979-1.162 8.893-1.937-33.828-9.009-60.391-35.835-69.014-69.82z" fill="#ffcbbe"/></g></g><g><path d="m287.981 15.132c43.624 23.024 76.547 56.273 94.64 89.805 18.928 34.229 23.027 68.738 28.277 110.394-64.859 0-129.718 0-194.577 0l-34.531-34.531v-126.033z" fill="#9ea2e3"/><path d="m287.981 15.132c-19.716-10.176-44.449-10.176-64.166 0-43.624 23.027-76.547 56.273-94.64 89.806-18.928 34.229-23.027 68.745-28.277 110.393h115.423c-13.234-33.826-18.039-68.033-8.034-103.55 9.963-34.973 34.736-71.255 79.694-96.649z" fill="#8288cb"/></g><g><path d="m245.057 383.718c-50.703-22.626-86.045-73.479-86.045-132.589 0-12.357 1.569-24.345 4.476-35.798-16.044 0-32.087 0-48.131 0-2.905 11.451-4.454 23.443-4.454 35.798s1.549 24.347 4.454 35.798c8.858 34.912 30.373 64.771 59.369 84.422-10.078 9.713-8.366 29.515 10.594 34.94l70.71 19.966c10.841-14.416 5.498-35.187-10.973-42.537z" fill="#9ea2e3"/></g><path d="m233.531 208.579v47.5c0 12.426 10.074 22.5 22.5 22.5s22.5-10.074 22.5-22.5v-47.5z" fill="#8288cb"/><path d="m87.099 225.404c-5.563-15.607 2.579-32.769 18.186-38.332 97.211-34.65 204.286-34.651 301.498-.001 15.606 5.563 23.749 22.725 18.186 38.331-5.563 15.607-22.723 23.745-38.331 18.187-84.221-30.021-176.987-30.021-261.207.001-15.595 5.558-32.765-2.568-38.332-18.186z" fill="#676fb2"/><g><path d="m414.018 182.086c-4.493-29.767-10.657-55.139-24.797-80.71-19.796-36.689-55.421-70.542-97.8-92.909-10.732-5.539-23.016-8.467-35.523-8.467-12.506 0-24.79 2.928-35.584 8.499-19.952 10.532-38.245 23.389-54.369 38.213-3.049 2.804-3.249 7.549-.445 10.598s7.548 3.248 10.597.445c15.174-13.952 32.407-26.061 51.157-35.958 8.616-4.446 18.521-6.797 28.644-6.797 10.124 0 20.028 2.351 28.583 6.765 39.755 20.982 73.121 52.596 91.577 86.803 11.815 21.365 17.667 42.888 21.823 67.56-92.027-30.061-191.954-30.033-283.979.092 6.137-36.465 16.432-66.544 42.191-97.499 2.649-3.184 2.216-7.912-.968-10.562-3.184-2.651-7.913-2.219-10.563.968-30.865 37.088-40.718 72.73-46.805 113.102-16.347 8.608-24.092 27.824-17.722 45.694 3.909 10.965 12.583 19.315 23.384 22.937-.07 48.09 22.376 93.213 60.813 122.201-5.795 11.228-3.559 25.831 7.396 34.554-27.626 24.091-44.169 59.059-44.169 96.886 0 4.143 3.358 7.5 7.5 7.5h242.146c4.143 0 7.5-3.357 7.5-7.5 0-11.826-1.62-23.559-4.815-34.871-1.126-3.985-5.27-6.302-9.257-5.179-3.985 1.126-6.305 5.271-5.179 9.257 2.144 7.59 3.484 15.396 4.005 23.293h-25.19c-.345-23.759-2.353-46.537-6.31-71.126 6.383 6.648 11.983 14.059 16.569 21.989 2.071 3.582 6.657 4.812 10.247 2.737 3.585-2.073 4.812-6.661 2.737-10.247-7.044-12.182-16.204-23.278-26.828-32.599 10.084-8.222 13.381-22.764 7.199-34.677 38.466-28.99 60.989-74.208 60.889-122.228 10.789-3.626 19.455-11.973 23.361-22.93 6.318-17.724-1.711-37.332-18.015-45.834zm-239.861 243.82c-3.94 24.331-5.94 47.104-6.281 71.094h-25.176c1.751-26.861 13.028-51.904 31.457-71.094zm8.722 71.094c.4-27.231 3.01-52.878 8.271-81.271l57.25 16.165v42.606c0 4.14 3.36 7.5 7.5 7.5 4.13 0 7.5-3.36 7.5-7.5v-42.532l57.493-16.24c5.33 29.012 7.885 54.107 8.275 81.272zm152.065-133.151h-5.121c-4.142 0-7.5 3.357-7.5 7.5s3.358 7.5 7.5 7.5h3.979c4.738 7.25 1.15 17.321-7.492 19.762l-70.278 19.852-68.647-19.384c-11.977-3.427-13.201-14.001-9.17-20.229h3.913c4.142 0 7.5-3.357 7.5-7.5s-3.358-7.5-7.5-7.5h-5.034c-36.678-25.712-58.219-66.696-58.671-111.148 8.605-.708 9.61-2.907 33.371-9.628-4.681 59.84 42.688 112.574 104.237 112.574 61.217 0 108.979-52.419 104.248-112.574 23.819 6.738 24.692 8.907 33.391 9.618-.419 44.428-21.982 85.416-58.726 111.157zm-93.913-134.955c9.979-.388 20.02-.388 30 0v27.185c0 8.271-6.729 15-15 15s-15-6.729-15-15zm15 57.184c16.542 0 30-13.458 30-30v-26.301c19.775 1.555 39.469 4.669 58.727 9.259 7.347 53.321-34.264 101.61-88.728 101.61-54.644 0-96.016-48.472-88.72-101.609 19.255-4.589 38.947-7.705 58.721-9.259v26.3c0 16.542 13.458 30 30 30zm161.873-63.194c-4.176 11.712-17.051 17.807-28.749 13.641-85.71-30.555-180.467-30.577-266.243.001-11.68 4.162-24.568-1.911-28.749-13.639-4.13-11.589 1.627-24.125 13.109-28.543l.53-.207c95.566-34.064 200.854-34.079 296.457-.001l.269.104c.02.008.04.016.06.023 11.444 4.277 17.417 17.114 13.316 28.621z"/><circle cx="121.031" cy="213.14" r="7.5"/><circle cx="391.031" cy="213.14" r="7.5"/><circle cx="346.031" cy="200.808" r="7.5"/><circle cx="301.031" cy="193.485" r="7.5"/><circle cx="256.031" cy="191.079" r="7.5"/><circle cx="211.031" cy="193.486" r="7.5"/><circle cx="166.031" cy="200.81" r="7.5"/><path d="m193.582 259c-4.142 0-7.5 3.357-7.5 7.5v12c0 4.143 3.358 7.5 7.5 7.5s7.5-3.357 7.5-7.5v-12c0-4.143-3.358-7.5-7.5-7.5z"/><path d="m318.48 286c4.142 0 7.5-3.357 7.5-7.5v-12c0-4.143-3.358-7.5-7.5-7.5s-7.5 3.357-7.5 7.5v12c0 4.143 3.358 7.5 7.5 7.5z"/><path d="m278.15 303.07c2.721-3.123 2.396-7.86-.727-10.582-3.123-2.721-7.861-2.396-10.582.727-5.724 6.57-15.9 6.566-21.62 0-2.722-3.122-7.459-3.447-10.582-.727-3.123 2.722-3.448 7.459-.727 10.582 11.706 13.431 32.545 13.417 44.238 0z"/></g></g></svg>