<svg width="44" height="50" viewBox="0 0 44 50" fill="none" xmlns="http://www.w3.org/2000/svg">
<path d="M36.2854 28.6423C38.2727 28.6423 39.8836 27.0313 39.8836 25.0441C39.8836 23.0569 38.2727 21.4459 36.2854 21.4459C34.2982 21.4459 32.6873 23.0569 32.6873 25.0441C32.6873 27.0313 34.2982 28.6423 36.2854 28.6423Z" fill="#FFBF9E"/>
<path d="M7.33916 28.6423C9.32638 28.6423 10.9373 27.0313 10.9373 25.0441C10.9373 23.0569 9.32638 21.4459 7.33916 21.4459C5.35193 21.4459 3.74097 23.0569 3.74097 25.0441C3.74097 27.0313 5.35193 28.6423 7.33916 28.6423Z" fill="#F7AB8B"/>
<path d="M11.9301 50.3114C10.677 50.3114 9.72642 49.1677 9.97124 47.9387C11.0736 42.4064 15.9562 38.2372 21.8124 38.2372C27.6687 38.2372 32.5512 42.4065 33.6536 47.9387C33.8985 49.1677 32.948 50.3114 31.6947 50.3114H11.9301Z" fill="#4E5660"/>
<path d="M24.3048 38.497C23.5005 38.3269 22.6667 38.2372 21.8124 38.2372C15.9685 38.2372 11.0791 42.4142 9.9726 47.9376C9.72638 49.1668 10.6776 50.3114 11.9312 50.3114H14.7243C14.7244 44.5108 18.8406 39.6499 24.3048 38.497Z" fill="#383C43"/>
<path d="M39.922 29.2615C39.922 27.1624 38.2204 25.4608 36.1213 25.4608V23.3987L35.9844 21.41C35.0164 14.4485 29.0402 9.08948 21.8122 9.08948C14.5842 9.08948 8.60798 14.4485 7.64005 21.41L7.50312 23.3987V25.4608C5.40401 25.4608 3.70239 27.1624 3.70239 29.2615C3.70239 30.9287 4.77633 32.3441 6.26972 32.8564C5.88767 33.4492 5.66509 34.1544 5.66509 34.9121C5.66509 36.9666 7.2956 38.6393 9.33298 38.7094C9.23824 39.0414 9.18649 39.3915 9.18649 39.7539C9.18649 41.853 10.8881 43.5547 12.9872 43.5547C13.2456 43.5547 13.4979 43.5286 13.7419 43.4795C14.3903 44.6482 15.6361 45.4397 17.0673 45.4397C17.747 45.4397 18.3845 45.2604 18.9365 44.9478C19.6335 45.7541 20.6629 46.265 21.8122 46.265C22.9615 46.265 23.991 45.7541 24.6879 44.9478C25.24 45.2604 25.8774 45.4397 26.5571 45.4397C27.9884 45.4397 29.2343 44.6482 29.8825 43.4795C30.1264 43.5286 30.3787 43.5547 30.6372 43.5547C32.7363 43.5547 34.4379 41.853 34.4379 39.7539C34.4379 39.3915 34.3862 39.0414 34.2914 38.7094C36.3289 38.6393 37.9593 36.9666 37.9593 34.9121C37.9593 34.1544 37.7368 33.4492 37.3547 32.8564C38.8482 32.3441 39.922 30.9287 39.922 29.2615V29.2615Z" fill="#E26E7E"/>
<path d="M18.9379 44.9489C18.4549 44.2385 18.1724 43.3808 18.1724 42.457C18.1724 41.7251 18.3507 41.0352 18.6646 40.4266C16.2614 40.3716 14.3298 38.4077 14.3298 35.9914C14.3298 33.5404 16.3166 31.5536 18.7676 31.5536V9.41479C12.9615 10.6732 8.46845 15.455 7.64053 21.41L7.50361 23.3986V25.4607C5.40449 25.4607 3.70288 27.1623 3.70288 29.2614C3.70288 30.9286 4.77682 32.344 6.27021 32.8563C5.88816 33.4491 5.66557 34.1543 5.66557 34.912C5.66557 36.9665 7.29608 38.6392 9.33347 38.7093C9.23873 39.0413 9.18698 39.3914 9.18698 39.7538C9.18698 41.8529 10.8886 43.5546 12.9877 43.5546C13.2461 43.5546 13.4984 43.5285 13.7424 43.4794C14.3907 44.6481 15.6366 45.4396 17.0678 45.4396C17.7475 45.4396 18.3849 45.2603 18.937 44.9477C18.9372 44.9481 18.9375 44.9485 18.9379 44.9489V44.9489Z" fill="#D3596E"/>
<path d="M40.8918 1.32701L38.9622 5.18628C38.2443 6.62212 36.7768 7.52912 35.1714 7.52912H8.45328C6.8479 7.52912 5.38034 6.62212 4.66242 5.18628L2.73274 1.32701C2.55522 0.971985 2.19242 0.747803 1.79562 0.747803C1.21691 0.747803 0.747803 1.21691 0.747803 1.79562V5.83379C0.747803 10.5153 4.54295 14.3104 9.22445 14.3104H34.4001C39.0816 14.3104 42.8768 10.5153 42.8768 5.83379V1.79562C42.8768 1.21691 42.4077 0.747803 41.8289 0.747803C41.4321 0.747803 41.0693 0.971985 40.8918 1.32701V1.32701Z" fill="#FCF2D0"/>
<path d="M34.4001 10.9198H9.22445C4.54295 10.9198 0.747803 7.12462 0.747803 2.44312V5.83378C0.747803 10.5153 4.54295 14.3104 9.22445 14.3104H34.4001C39.0816 14.3104 42.8768 10.5153 42.8768 5.83378V2.44312C42.8768 7.12462 39.0816 10.9198 34.4001 10.9198Z" fill="#EFDFB4"/>
<path d="M21.8125 4.33813C13.0002 4.33813 5.85645 11.4819 5.85645 20.2942H37.7685C37.7685 11.4819 30.6247 4.33813 21.8125 4.33813V4.33813Z" fill="#9AA3B1"/>
<path d="M21.8126 4.33813H21.8125C13.0003 4.33813 5.85645 11.4819 5.85645 20.2942H11.84C11.84 13.598 15.9651 7.86612 21.8126 5.49924V4.33813Z" fill="#7E8B9E"/>
<path d="M21.8124 0.747803C20.7108 0.747803 19.8179 1.64074 19.8179 2.74231V20.294H23.8069V2.74231C23.8069 1.64074 22.9139 0.747803 21.8124 0.747803Z" fill="#FCF2D0"/>
<path d="M21.8124 12.9052C20.7108 12.9052 19.8179 12.0122 19.8179 10.9106V20.2941H23.8069V10.9106C23.8069 12.0122 22.9139 12.9052 21.8124 12.9052V12.9052Z" fill="#EFDFB4"/>
<path d="M11.0146 21.2552V28.7769C11.0146 30.9989 12.816 32.8002 15.038 32.8002H28.5867C30.8087 32.8002 32.6101 30.9989 32.6101 28.7769V21.2552H11.0146Z" fill="#FFD4BE"/>
<path d="M19.935 28.7769V21.2552H11.0146V28.7769C11.0146 30.9989 12.816 32.8002 15.038 32.8002H23.9583C21.7362 32.8002 19.935 30.999 19.935 28.7769Z" fill="#FFBF9E"/>
<path d="M16.9571 24.8432L14.5572 24.2001C14.1588 24.0937 13.7482 24.33 13.6411 24.7291C13.5342 25.1281 13.771 25.5381 14.17 25.6451L14.8758 25.8343C14.8507 25.9091 14.8366 25.989 14.8366 26.0723V27.106C14.8366 27.5191 15.1714 27.854 15.5845 27.854C15.9976 27.854 16.3324 27.5191 16.3324 27.106V26.2245L16.5699 26.2882C16.6347 26.3055 16.6998 26.3138 16.7639 26.3138C17.0941 26.3138 17.3964 26.0934 17.486 25.7592C17.5929 25.3602 17.3561 24.9502 16.9571 24.8432V24.8432Z" fill="black"/>
<path d="M29.9835 24.7285C29.8767 24.3295 29.4666 24.093 29.0674 24.1996L26.6676 24.8426C26.2686 24.9495 26.0318 25.3597 26.1387 25.7587C26.2282 26.0929 26.5304 26.3133 26.8606 26.3133C26.9247 26.3133 26.9899 26.305 27.0547 26.2876L27.2921 26.224V27.1055C27.2921 27.5185 27.6269 27.8534 28.0401 27.8534C28.4532 27.8534 28.788 27.5185 28.788 27.1055V26.0717C28.788 25.9884 28.7738 25.9086 28.7487 25.8338L29.4547 25.6446C29.8537 25.5376 30.0904 25.1275 29.9835 24.7285Z" fill="black"/>
<path d="M10.766 28.8727C12.4747 30.5829 15.2465 30.5835 16.956 28.8741C18.2566 27.5735 20.3654 27.5735 21.666 28.8741L21.6768 28.8849C22.9774 30.1855 22.9774 32.2943 21.6768 33.5949L21.0265 34.2452C18.3269 36.9448 13.9501 36.9448 11.2505 34.2452C9.94401 32.9387 9.26986 31.2393 9.22808 29.5273C9.20823 28.7161 10.1926 28.2988 10.766 28.8727Z" fill="#E8899E"/>
<path d="M32.8589 28.8727C31.1502 30.5829 28.3784 30.5835 26.6689 28.8741C25.3683 27.5735 23.2595 27.5735 21.9589 28.8741L21.9481 28.8849C20.6475 30.1855 20.6475 32.2943 21.9481 33.5949L22.5984 34.2452C25.298 36.9448 29.6748 36.9448 32.3744 34.2452C33.6809 32.9387 34.355 31.2393 34.3968 29.5273C34.4166 28.7161 33.4323 28.2988 32.8589 28.8727Z" fill="#E8899E"/>
<path d="M40.7602 22.2886H2.86462C1.76306 22.2886 0.870117 21.3956 0.870117 20.2941C0.870117 19.1925 1.76306 18.2996 2.86462 18.2996H40.7602C41.8618 18.2996 42.7547 19.1925 42.7547 20.2941C42.7547 21.3956 41.8618 22.2886 40.7602 22.2886Z" fill="#C6C6C6"/>
<path d="M17.9406 20.2941C17.9406 19.1925 18.8335 18.2996 19.9351 18.2996H2.86462C1.76306 18.2996 0.870117 19.1925 0.870117 20.2941C0.870117 21.3956 1.76306 22.2886 2.86462 22.2886H19.9351C18.8335 22.2886 17.9406 21.3956 17.9406 20.2941Z" fill="#9AA3B1"/>
<path d="M29.3739 15.1675C30.4754 15.1675 31.3684 14.2745 31.3684 13.173C31.3684 12.0714 30.4754 11.1785 29.3739 11.1785C28.2724 11.1785 27.3794 12.0714 27.3794 13.173C27.3794 14.2745 28.2724 15.1675 29.3739 15.1675Z" fill="#7E8B9E"/>
<path d="M14.2509 15.1675C15.3524 15.1675 16.2454 14.2745 16.2454 13.173C16.2454 12.0714 15.3524 11.1785 14.2509 11.1785C13.1493 11.1785 12.2563 12.0714 12.2563 13.173C12.2563 14.2745 13.1493 15.1675 14.2509 15.1675Z" fill="#7E8B9E"/>
<path d="M43.6248 5.83393V1.79565C43.6248 0.805581 42.8194 0 41.8292 0C41.1446 0 40.5291 0.380352 40.2231 0.992666L38.2934 4.85184C37.6984 6.04196 36.5021 6.78132 35.1715 6.78132H31.6328C29.5776 5.28534 27.1685 4.247 24.5549 3.81519V2.74245C24.5549 1.23021 23.3246 0 21.8124 0C20.3002 0 19.07 1.23021 19.07 2.74245V3.81509C16.4574 4.2468 14.0485 5.28524 11.9933 6.78132H8.45332C7.12268 6.78132 5.92648 6.04196 5.33141 4.85184L3.40183 0.992765C3.09577 0.380352 2.48037 0 1.79575 0C0.805581 0 0 0.805581 0 1.79565V5.83393C0 7.13914 0.267363 8.40096 0.794511 9.5844C0.91857 9.86283 1.19182 10.0282 1.47813 10.0282C1.57985 10.0282 1.68316 10.0073 1.78209 9.96326C2.15945 9.79512 2.32898 9.35294 2.16095 8.97568C1.71956 7.98501 1.49588 6.92802 1.49588 5.83393V1.79565C1.49588 1.63031 1.63041 1.49588 1.79575 1.49588C1.91004 1.49588 2.01276 1.5594 2.06392 1.66162L3.9936 5.52079C4.84356 7.22101 6.55255 8.2772 8.45342 8.2772H10.2121C8.77184 9.66777 7.58062 11.3147 6.71231 13.1451C5.57654 12.7547 4.54139 12.1004 3.69452 11.2331C3.40592 10.9375 2.93232 10.9319 2.63694 11.2205C2.34135 11.5091 2.33577 11.9826 2.62437 12.2781C3.61125 13.2887 4.81324 14.0562 6.13231 14.5258C5.77539 15.4953 5.50593 16.507 5.33331 17.5516H2.86461C1.35237 17.5516 0.122163 18.7818 0.122163 20.294C0.122163 21.8062 1.35247 23.0365 2.86461 23.0365H3.4847C3.16538 23.6496 2.99316 24.3368 2.99316 25.0441C2.99316 25.7656 3.16957 26.4655 3.50604 27.0933C3.15481 27.7382 2.95466 28.4768 2.95466 29.2614C2.95466 30.9145 3.8485 32.4127 5.24715 33.2112C5.03004 33.7487 4.91745 34.3249 4.91745 34.9119C4.91745 37.0837 6.41573 38.8923 8.45701 39.3485C8.44494 39.4832 8.43886 39.6185 8.43886 39.7538C8.43886 41.4696 9.39402 42.9661 10.8003 43.7406C10.0495 44.9945 9.52447 46.3541 9.23775 47.7925C9.0778 48.5949 9.28473 49.4192 9.80539 50.0538C10.3296 50.6929 11.104 51.0594 11.9301 51.0594H31.6948C32.5209 51.0594 33.2954 50.6929 33.8196 50.0538C34.3403 49.4192 34.5471 48.595 34.3872 47.7926C34.1005 46.3535 33.5751 44.9943 32.8245 43.7408C34.2308 42.9663 35.1861 41.4697 35.1861 39.7539C35.1861 39.618 35.1799 39.4822 35.1677 39.3469C35.7148 39.2229 36.2359 38.9981 36.7048 38.681C37.0471 38.4496 37.1368 37.9846 36.9054 37.6424C36.674 37.3002 36.209 37.2104 35.8669 37.4418C35.393 37.7623 34.8393 37.9421 34.2659 37.9618C34.0359 37.9698 33.8223 38.0831 33.6869 38.2692C33.5515 38.4553 33.5092 38.6933 33.5724 38.9146C33.6505 39.1884 33.6902 39.4707 33.6902 39.7539C33.6902 41.4372 32.3208 42.8067 30.6375 42.8067C30.434 42.8067 30.2297 42.7863 30.0305 42.7463C29.711 42.682 29.3869 42.8317 29.2288 43.1166C28.6899 44.0882 27.6663 44.6917 26.5574 44.6917C26.0318 44.6917 25.5128 44.5552 25.0567 44.2969C24.7463 44.1212 24.3553 44.189 24.1224 44.4587C23.541 45.1313 22.6991 45.517 21.8125 45.517C20.926 45.517 20.084 45.1313 19.5026 44.4586C19.2695 44.1889 18.8784 44.1214 18.5683 44.2969C18.1121 44.5552 17.5932 44.6916 17.0676 44.6916C15.9587 44.6916 14.9352 44.0881 14.3962 43.1165C14.2382 42.8316 13.9137 42.6819 13.5945 42.7462C13.3953 42.7862 13.1911 42.8066 12.9875 42.8066C11.3043 42.8066 9.93473 41.4372 9.93473 39.7538C9.93473 39.471 9.97433 39.1886 10.0526 38.9144C10.1157 38.6931 10.0735 38.4551 9.93803 38.269C9.8026 38.0829 9.58899 37.9696 9.35902 37.9616C7.70727 37.9048 6.41333 36.5652 6.41333 34.9117C6.41333 34.3247 6.58117 33.7539 6.8987 33.2613C7.02326 33.068 7.05198 32.8282 6.97668 32.611C6.90129 32.3938 6.73026 32.2232 6.51276 32.1486C5.27936 31.7255 4.45064 30.5652 4.45064 29.2612C4.45064 27.5779 5.82007 26.2084 7.50343 26.2084C7.91649 26.2084 8.25137 25.8735 8.25137 25.4605V23.4241L8.2781 23.0363H10.267V27.8657C10.0037 27.8438 9.73339 27.8844 9.47779 27.9939C8.85551 28.2605 8.46399 28.8694 8.48054 29.5453C8.52871 31.5199 9.32472 33.3768 10.7219 34.7738C12.1688 36.2207 14.0925 37.0176 16.1386 37.0176C18.1848 37.0176 20.1086 36.2208 21.5555 34.7738L21.8124 34.5169L22.0695 34.774C23.5164 36.2209 25.4401 37.0178 27.4863 37.0178C29.5327 37.0178 31.4564 36.2209 32.9031 34.774C34.3003 33.377 35.0962 31.5201 35.1445 29.5454C35.161 28.8696 34.7694 28.2607 34.1471 27.9941C33.8916 27.8847 33.6213 27.8441 33.358 27.866V23.0365H35.3468L35.3736 23.4243V25.4607C35.3736 25.8737 35.7083 26.2086 36.1215 26.2086C37.8048 26.2086 39.1742 27.578 39.1742 29.2614C39.1742 30.5654 38.3455 31.7257 37.1121 32.1488C36.8946 32.2234 36.7235 32.394 36.6482 32.6112C36.5728 32.8284 36.6016 33.0682 36.7261 33.2615C37.0437 33.7541 37.2115 34.325 37.2115 34.9119C37.2115 35.1097 37.1926 35.3076 37.155 35.5003C37.0761 35.9058 37.3407 36.2984 37.7463 36.3774C37.7945 36.3868 37.8427 36.3914 37.8899 36.3914C38.2408 36.3914 38.5538 36.1433 38.6233 35.7862C38.6791 35.4995 38.7074 35.2054 38.7074 34.9119C38.7074 34.3249 38.5947 33.7487 38.3776 33.2112C39.7761 32.4127 40.67 30.9144 40.67 29.2614C40.67 28.4765 40.4696 27.7377 40.1182 27.0926C40.4544 26.4647 40.6312 25.764 40.6312 25.0441C40.6312 24.3384 40.458 23.6506 40.1382 23.0365H40.7602C42.2724 23.0365 43.5027 21.8063 43.5027 20.2941C43.5027 18.7819 42.2724 17.5517 40.7602 17.5517H38.2912C38.1187 16.5072 37.8493 15.4957 37.4927 14.5264C41.1368 13.2315 43.6248 9.75503 43.6248 5.83393V5.83393ZM13.3692 44.2865C14.2176 45.4705 15.5919 46.1875 17.0675 46.1875C17.6555 46.1875 18.2379 46.0728 18.7795 45.8528C19.6092 46.5958 20.6865 47.0128 21.8124 47.0128C22.9383 47.0128 24.0156 46.5957 24.8453 45.8528C25.3871 46.0729 25.9694 46.1875 26.5573 46.1875C28.0331 46.1875 29.4072 45.4705 30.2558 44.2865C30.3827 44.2971 30.5102 44.3025 30.6374 44.3025C30.8889 44.3025 31.1354 44.281 31.3759 44.2416C32.127 45.4212 32.6466 46.7121 32.92 48.085C32.9921 48.4464 32.8984 48.8182 32.663 49.105C32.4241 49.3964 32.0711 49.5635 31.6947 49.5635H11.9301C11.5538 49.5635 11.2008 49.3964 10.9619 49.105C10.7266 48.8181 10.6328 48.4463 10.7048 48.0849C10.9783 46.7127 11.4973 45.4214 12.2485 44.2414C12.4891 44.2809 12.7358 44.3024 12.9874 44.3024C13.1147 44.3025 13.2421 44.2971 13.3692 44.2865V44.2865ZM35.1715 8.2772C37.0724 8.2772 38.7812 7.22101 39.6313 5.52079L41.5611 1.66152C41.6122 1.5593 41.7149 1.49578 41.8292 1.49578C41.9944 1.49578 42.129 1.63031 42.129 1.79555V5.83393C42.129 9.1477 40.0082 12.0817 36.9123 13.1439C36.0443 11.3139 34.8537 9.66747 33.414 8.2772H35.1715ZM21.8124 1.49588C22.4998 1.49588 23.059 2.05504 23.059 2.74245V17.5517H20.5659V2.74245C20.5659 2.05504 21.1251 1.49588 21.8124 1.49588ZM19.07 5.33321V17.5517H6.85093C7.98032 11.3482 12.8734 6.4616 19.07 5.33321ZM6.75709 23.3472C6.75589 23.3642 6.75529 23.3814 6.75529 23.3986V24.7742C5.93824 24.9099 5.19439 25.2646 4.58547 25.7751C4.52284 25.5385 4.48894 25.2935 4.48894 25.044C4.48894 24.2888 4.78891 23.5689 5.31735 23.0364H6.77843L6.75709 23.3472ZM11.7794 33.7162C10.6552 32.5919 10.0146 31.0977 9.97582 29.5089C9.97522 29.4842 9.97343 29.4091 10.0667 29.3691C10.1307 29.3417 10.1881 29.3524 10.237 29.4013C11.2047 30.3697 12.4916 30.9034 13.8606 30.9036H13.8618C15.2304 30.9036 16.5171 30.3706 17.4849 29.4028C17.9728 28.9151 18.6213 28.6464 19.3111 28.6464C19.858 28.6464 20.3786 28.8158 20.8141 29.1289C20.0259 30.4319 20.0324 32.0833 20.833 33.3809L20.4977 33.7161C18.094 36.1199 14.1829 36.1199 11.7794 33.7162V33.7162ZM33.5582 29.3691C33.6515 29.409 33.6496 29.4842 33.649 29.5089C33.6102 31.0978 32.9697 32.592 31.8454 33.7162C30.6811 34.8806 29.1331 35.5219 27.4863 35.5219C25.8396 35.5219 24.2916 34.8806 23.1272 33.7162L22.4769 33.066C21.47 32.0591 21.47 30.4207 22.4756 29.415L22.4877 29.403C22.9754 28.9153 23.6239 28.6466 24.3137 28.6466C25.0036 28.6466 25.6521 28.9153 26.1399 29.403C27.1077 30.3708 28.3943 30.9038 29.7631 30.9038H29.7643C31.1334 30.9035 32.4203 30.3699 33.3879 29.4014C33.4367 29.3526 33.494 29.3416 33.5582 29.3691V29.3691ZM31.8622 28.7388C31.2532 29.1727 30.5269 29.4077 29.764 29.4078C29.7637 29.4078 29.7635 29.4078 29.7632 29.4078C28.7941 29.4078 27.883 29.0304 27.1978 28.3452C26.4274 27.5748 25.4033 27.1506 24.3138 27.1506C23.3956 27.1506 22.5243 27.4531 21.8123 28.0086C21.0999 27.4529 20.2289 27.1506 19.311 27.1506C18.2216 27.1506 17.1974 27.5748 16.4272 28.3452C15.7418 29.0305 14.8309 29.4078 13.8617 29.4078C13.8615 29.4078 13.8611 29.4078 13.8609 29.4078C13.0981 29.4077 12.3718 29.1727 11.7628 28.7388V23.0365H31.8622V28.7388ZM39.1355 25.0441C39.1355 25.2932 39.1017 25.5383 39.0391 25.775C38.4301 25.2646 37.6864 24.91 36.8694 24.7743V23.3986C36.8694 23.3814 36.8688 23.3642 36.8677 23.3471L36.8463 23.0365H38.3079C38.8356 23.5688 39.1355 24.2911 39.1355 25.0441V25.0441ZM42.0068 20.2941C42.0068 20.9815 41.4476 21.5407 40.7602 21.5407H2.86461C2.1772 21.5407 1.61804 20.9815 1.61804 20.2941C1.61804 19.6067 2.1773 19.0475 2.86461 19.0475H40.7602C41.4476 19.0475 42.0068 19.6067 42.0068 20.2941ZM24.5549 17.5517V5.33331C30.7537 6.462 35.6441 11.3473 36.7735 17.5517H24.5549Z" fill="black"/>
<path d="M29.374 10.4305C27.8619 10.4305 26.6316 11.6608 26.6316 13.173C26.6316 14.6852 27.8619 15.9154 29.374 15.9154C30.8862 15.9154 32.1165 14.6852 32.1165 13.173C32.1165 11.6608 30.8862 10.4305 29.374 10.4305V10.4305ZM29.374 14.4196C28.6866 14.4196 28.1275 13.8604 28.1275 13.173C28.1275 12.4856 28.6866 11.9264 29.374 11.9264C30.0614 11.9264 30.6206 12.4856 30.6206 13.173C30.6206 13.8604 30.0613 14.4196 29.374 14.4196Z" fill="black"/>
<path d="M14.251 10.4305C12.7388 10.4305 11.5085 11.6608 11.5085 13.173C11.5085 14.6852 12.7388 15.9154 14.251 15.9154C15.7632 15.9154 16.9934 14.6852 16.9934 13.173C16.9934 11.6608 15.7631 10.4305 14.251 10.4305V10.4305ZM14.251 14.4196C13.5636 14.4196 13.0044 13.8604 13.0044 13.173C13.0044 12.4856 13.5636 11.9264 14.251 11.9264C14.9384 11.9264 15.4976 12.4856 15.4976 13.173C15.4976 13.8604 14.9383 14.4196 14.251 14.4196Z" fill="black"/>
</svg>
