<svg viewBox="0 0 512 512" xmlns="http://www.w3.org/2000/svg"><path d="m512 256c0 141.386719-114.613281 256-256 256s-256-114.613281-256-256 114.613281-256 256-256 256 114.613281 256 256zm0 0" fill="#ffd00d"/><path d="m301.300781 195.519531c0-8.464843-6.863281-15.332031-15.332031-15.332031h-62.332031c-8.46875 0-15.335938-6.867188-15.335938-15.332031 0-8.46875 6.867188-15.335938 15.335938-15.335938h175.332031c8.46875 0 15.332031 6.867188 15.332031 15.335938 0 8.464843 6.863281 15.332031 15.332031 15.332031h39.335938c8.464844 0 15.332031 6.863281 15.332031 15.332031s-6.867187 15.332031-15.332031 15.332031h-101.335938c-8.46875 0-15.332031 6.867188-15.332031 15.335938 0 8.464844-6.863281 15.332031-15.332031 15.332031h-75.332031c-8.46875 0-15.335938-6.867187-15.335938-15.332031 0-8.46875 6.867188-15.335938 15.335938-15.335938h24.332031c8.46875.003907 15.332031-6.863281 15.332031-15.332031zm0 0" fill="#ffaf10"/><path d="m152.949219 233.789062h-39.332031c-8.46875 0-15.335938-6.867187-15.335938-15.335937 0-8.464844-6.863281-15.332031-15.332031-15.332031h-77.46875c-3.582031 17.0625-5.480469 34.75-5.480469 52.878906 0 13.300781 1.015625 26.367188 2.972656 39.121094h17.976563c8.46875 0 15.332031-6.863282 15.332031-15.332032s6.867188-15.332031 15.332031-15.332031h101.335938c8.464843 0 15.332031-6.867187 15.332031-15.335937s-6.863281-15.332032-15.332031-15.332032zm0 0" fill="#ffaf10"/><path d="m511.992188 255.292969h-171.515626c-8.46875 0-15.332031 6.867187-15.332031 15.335937 0 8.464844 6.863281 15.332032 15.332031 15.332032h62.332032c8.46875 0 15.332031 6.863281 15.332031 15.332031s-6.863281 15.332031-15.332031 15.332031h-24.332032c-8.46875 0-15.332031 6.867188-15.332031 15.335938 0 8.464843 6.863281 15.332031 15.332031 15.332031h75.332032c8.46875 0 15.332031-6.867188 15.332031-15.332031 0-8.46875 6.867187-15.335938 15.335937-15.335938h20.28125c4.722657-19.433594 7.242188-39.734375 7.242188-60.625 0-.234375-.007812-.46875-.007812-.707031zm0 0" fill="#ffaf10"/><path d="m230.78125 510.761719c8.296875.8125 16.707031 1.238281 25.21875 1.238281 9.15625 0 18.195312-.488281 27.101562-1.429688l125.8125-247.921874-41.53125-21.074219zm0 0"/><path d="m367.382812 241.574219-136.601562 269.1875c5.96875.585937 11.996094.96875 18.078125 1.132812l133.355469-262.792969zm0 0" fill="#232323"/><path d="m464.832031 70.089844 24.945313 12.660156c3.488281 1.769531 4.878906 6.03125 3.109375 9.519531l-85.949219 169.375-37.574219-19.066406 85.949219-169.378906c1.769531-3.484375 6.03125-4.878907 9.519531-3.109375zm0 0" fill="#fe3745"/><path d="m474.101562 82.734375-85.953124 169.378906 18.789062 9.53125 85.949219-169.375c1.769531-3.488281.378906-7.75-3.109375-9.519531l-18.789063-9.535156c3.488281 1.769531 4.882813 6.03125 3.113281 9.519531zm0 0" fill="#ea2a3d"/><path d="m353.398438 220.574219 80.722656 40.960937c6.105468 3.101563 8.542968 10.5625 5.445312 16.667969-3.097656 6.109375-10.558594 8.546875-16.667968 5.449219l-80.722657-40.964844c-6.105469-3.097656-8.546875-10.5625-5.445312-16.667969 3.097656-6.105469 10.558593-8.546875 16.667969-5.445312zm0 0" fill="#d9eafc"/><path d="m424.734375 270.679688c-3.097656 6.105468-10.558594 8.542968-16.667969 5.445312l14.832032 7.527344c6.109374 3.097656 13.570312.660156 16.667968-5.449219 3.097656-6.105469.660156-13.566406-5.445312-16.667969l-14.832032-7.523437c6.105469 3.097656 8.546876 10.558593 5.445313 16.667969zm0 0" fill="#c3ddf4"/><g fill="#ea2a3d"><path d="m414.578125 203.292969 4.386719 13.414062c.355468 1.097657-.242188 2.28125-1.339844 2.636719l-13.414062 4.382812c-1.097657.359376-2.28125-.238281-2.636719-1.335937l-4.382813-13.414063c-.359375-1.097656.238282-2.28125 1.335938-2.636718l13.414062-4.386719c1.097656-.355469 2.28125.242187 2.636719 1.339844zm0 0"/><path d="m431.015625 170.910156 4.382813 13.414063c.359374 1.097656-.242188 2.277343-1.339844 2.636719l-13.414063 4.382812c-1.097656.359375-2.28125-.238281-2.636719-1.335938l-4.382812-13.417968c-.359375-1.097656.238281-2.277344 1.335938-2.636719l13.417968-4.382813c1.09375-.359374 2.277344.242188 2.636719 1.339844zm0 0"/><path d="m447.445312 138.523438 4.382813 13.417968c.359375 1.097656-.238281 2.277344-1.335937 2.636719l-13.414063 4.382813c-1.097656.359374-2.28125-.242188-2.636719-1.339844l-4.382812-13.414063c-.359375-1.097656.238281-2.277343 1.335937-2.636719l13.414063-4.382812c1.097656-.359375 2.28125.238281 2.636718 1.335938zm0 0"/><path d="m463.882812 106.140625 4.382813 13.414063c.355469 1.097656-.242187 2.28125-1.339844 2.636718l-13.414062 4.382813c-1.097657.359375-2.28125-.238281-2.636719-1.335938l-4.382812-13.414062c-.359376-1.097657.238281-2.28125 1.335937-2.636719l13.414063-4.382812c1.097656-.359376 2.28125.238281 2.640624 1.335937zm0 0"/></g><path d="m193.496094 174.191406c-7.742188 24.644532-118.484375 53.222656-103.484375 138.613282 0 0 50.097656-69.824219 116.351562-47.613282l28.648438-21.695312v-69.304688zm0 0"/><path d="m256 166c-24.105469 0-43.648438-19.542969-43.648438-43.648438v-78.703124c0-24.105469 19.542969-43.648438 43.648438-43.648438s43.648438 19.542969 43.648438 43.648438v78.703124c0 24.105469-19.542969 43.648438-43.648438 43.648438zm0 0"/><path d="m354.695312 162.347656s11.871094-9.160156 20.546876-4.824218c8.679687 4.339843 9.160156 25.070312 6.269531 29.890624-2.894531 4.820313-13.5 32.300782-21.214844 32.300782-7.710937 0-30.851563-2.996094-30.851563-2.996094zm0 0" fill="#e5a565"/><path d="m157.304688 162.347656s-11.871094-9.160156-20.546876-4.824218c-8.679687 4.339843-9.160156 25.070312-6.269531 29.890624 2.894531 4.820313 13.5 32.300782 21.214844 32.300782 7.710937 0 30.851563-2.996094 30.851563-2.996094zm0 0" fill="#e5a565"/><path d="m452.152344 420.484375-17.878906-55.3125c-5.46875-16.921875-19.757813-29.496094-37.238282-32.769531l-94.972656-17.789063h-92.125l-94.972656 17.789063c-17.480469 3.273437-31.769532 15.847656-37.238282 32.769531l-17.878906 55.3125c46.960938 55.941406 117.394532 91.515625 196.152344 91.515625s149.191406-35.574219 196.152344-91.515625zm0 0"/><path d="m452.152344 420.484375-17.878906-55.3125c-5.46875-16.921875-19.757813-29.496094-37.238282-32.769531l-94.972656-17.789063h-92.125l-94.972656 17.789063c-17.480469 3.273437-31.769532 15.847656-37.238282 32.769531l-17.878906 55.3125c46.960938 55.941406 117.394532 91.515625 196.152344 91.515625s149.191406-35.574219 196.152344-91.515625zm0 0" fill="#ffc987"/><path d="m256 314.613281h-46.0625l-69.421875 13.003907 13.289063 74.109374c1.53125 8.550782-2.421876 17.332032-9.84375 21.847657-16.453126 10.019531-23.734376 29.792969-17.699219 48.085937l2.058593 6.257813c37.582032 21.671875 81.179688 34.082031 127.679688 34.082031zm0 0" fill="#f2b675"/><path d="m370.875 484.816406 5.367188-16.285156c4.542968-13.777344-1.011719-28.871094-13.40625-36.414062-11.003907-6.699219-16.757813-19.472657-14.484376-32.15625l13.304688-74.183594-59.597656-11.164063h-92.121094l-59.59375 11.164063 13.304688 74.183594c2.273437 12.679687-3.480469 25.453124-14.484376 32.15625-12.394531 7.542968-17.949218 22.636718-13.40625 36.414062l5.367188 16.285156c34.546875 17.382813 73.5625 27.183594 114.875 27.183594s80.328125-9.800781 114.875-27.183594zm0 0" fill="#fe3745"/><path d="m370.875 484.816406 5.367188-16.285156c4.542968-13.777344-1.011719-28.871094-13.40625-36.414062-11.003907-6.699219-16.757813-19.472657-14.484376-32.15625l13.304688-74.183594-59.597656-11.164063h-92.121094l-59.59375 11.164063 13.304688 74.183594c2.273437 12.679687-3.480469 25.453124-14.484376 32.15625-12.394531 7.542968-17.949218 22.636718-13.40625 36.414062l5.367188 16.285156c34.546875 17.382813 73.5625 27.183594 114.875 27.183594s80.328125-9.800781 114.875-27.183594zm0 0" fill="#fe3745"/><path d="m312.527344 316.570312-10.464844-1.957031h-92.125l-10.46875 1.960938.015625.019531s28.21875 83.074219 55.535156 83.074219c27.316407 0 57.496094-83.074219 57.496094-83.074219zm0 0" fill="#b7092b"/><path d="m312.515625 316.59375s-22.417969 13.066406-56.515625 13.066406-56.515625-13.066406-56.515625-13.066406l6.070313-89.199219h100.890624zm0 0" fill="#d9eafc"/><path d="m310.554688 287.761719-4.109376-60.367188h-100.890624l-4.109376 60.367188-1.960937 28.832031s5.140625 2.992188 14.222656 6.109375l2.050781-28.503906c14.851563 5.78125 28.996094 8.535156 40.242188 8.535156 14.820312 0 34.667969-4.769531 54.554688-14.972656zm0 0" fill="#c3ddf4"/><path d="m357.875 106.363281c-11.234375-31.921875-38.089844-73.054687-101.875-73.054687s-90.640625 41.132812-101.875 73.054687c-6.558594 18.628907-8.117188 38.628907-4.925781 58.117188 4.683593 28.609375 14.992187 77.757812 32.480469 94.597656 25.238281 24.308594 56.558593 33.65625 74.320312 33.65625s49.082031-9.347656 74.320312-33.65625c17.488282-16.839844 27.796876-65.988281 32.480469-94.597656 3.191407-19.484375 1.632813-39.488281-4.925781-58.117188zm0 0" fill="#ffc987"/><path d="m350.1875 220.027344c-18.605469-10.171875-65.351562-34.058594-94.1875-34.058594s-75.582031 23.886719-94.1875 34.058594c5.179688 16.453125 11.75 31.234375 19.867188 39.050781 25.242187 24.308594 56.558593 33.65625 74.320312 33.65625s49.082031-9.347656 74.320312-33.65625c8.117188-7.816406 14.6875-22.597656 19.867188-39.050781zm0 0" fill="#fe3745"/><path d="m196.679688 259.078125c-9.230469-8.886719-16.457032-26.769531-21.914063-45.878906-5.085937 2.585937-9.503906 4.945312-12.953125 6.828125 5.179688 16.453125 11.75 31.234375 19.867188 39.050781 25.242187 24.308594 56.558593 33.65625 74.320312 33.65625 2.289062 0 4.804688-.15625 7.5-.480469-18.234375-2.179687-44.832031-12-66.820312-33.175781zm0 0" fill="#ea2a3d"/><path d="m185.199219 160.644531 138.613281 82.851563s33.425781-7.710938 48.503906-77.457032c4.558594-21.089843 1.636719-43.035156-5.34375-62.875-7.613281-21.625-19.027344-39.292968-33.929687-52.511718-20.1875-17.90625-46.109375-26.984375-77.042969-26.984375s-56.855469 9.078125-77.042969 26.984375c-14.902343 13.21875-26.316406 30.886718-33.925781 52.511718-6.984375 19.839844-8.378906 41.511719-5.347656 62.875 4.152344 29.238282 20.210937 58.15625 42.054687 77.4375.003907.003907.011719.003907.007813 0-.527344-.972656.511718-66.273437.757812-81.335937.023438-1.371094 1.519532-2.199219 2.695313-1.496094zm0 0" fill="#232323"/><path d="m181.636719 227.480469c-13.980469-17.660157-23.832031-39.457031-26.953125-61.441407-3.03125-21.363281-1.636719-43.035156 5.34375-62.875 7.613281-21.625 19.027344-39.292968 33.929687-52.511718 18.53125-16.4375 41.90625-25.414063 69.542969-26.78125-2.472656-.121094-4.964844-.203125-7.5-.203125-30.9375 0-56.855469 9.078125-77.042969 26.984375-14.902343 13.21875-26.316406 30.886718-33.929687 52.511718-6.980469 19.839844-8.375 41.511719-5.34375 62.875 4.152344 29.238282 20.210937 58.152344 42.054687 77.4375.003907.003907.011719.003907.007813 0-.164063-.300781-.175782-6.769531-.109375-15.996093zm0 0"/></svg>