<svg id="Layer_1" enable-background="new 0 0 512 512" height="512" viewBox="0 0 512 512" width="512" xmlns="http://www.w3.org/2000/svg"><g><g fill="#d4d4ff"><path d="m326.708 406.283-20.708.008 30.697 98.209h40.376c0-17.131-3.589-33.436-10.035-48.219-8.654-19.849-22.617-37.203-40.33-49.998z"/><path d="m185.289 406.289c-17.317 12.501-31.445 29.618-40.329 49.993-6.446 14.783-10.034 31.087-10.034 48.218h40.361l30.713-98.209z"/></g><g><path d="m326.708 406.283c-12.884-9.303-27.807-16.253-44.26-19.936h-26.581l-49.939 60.433v57.72h130.769v-.014c0-36.24-3.78-66.538-9.989-98.203z" fill="#9ea2e3"/><path d="m255.999 383.425c-26.424 0-50.858 8.536-70.709 22.864-.003.002.003-.002 0 0-6.35 31.921-10.002 62.777-10.002 98.211h10 20.641c.059-52.61 31.451-97.878 76.519-118.152-8.551-1.914-17.415-2.923-26.449-2.923z" fill="#8288cb"/></g><g><path d="m276.809 43.178h-46.154v52.53l10.212 16.792 21.761-4.956c-2.073-5.509-1.768-11.75.951-16.971 2.718-5.221 7.529-9.039 13.231-10.5v-36.895z" fill="#ea5b70"/><path d="m237.165 71.6c5.047-13.487 15.956-23.946 29.643-28.422-10.188 10.188-10.188 26.707 0 36.895 12.735 12.735 33.383 12.735 46.119 0 15.919-15.919 15.919-41.729 0-57.649-19.899-19.899-52.162-19.899-72.061 0-24.874 24.874-24.874 65.202 0 90.076-7.386-12.362-8.747-27.413-3.701-40.9z" fill="#ff8e9e"/></g><g><path d="m280.054 362.917-9.482 9.481v56.606l32.309 15.703c25.859-7.906 43.118-22.154 43.118-38.418 0-20.687-27.92-38.111-65.945-43.372z" fill="#8288cb"/><path d="m280.054 362.917c-7.658-1.06-15.723-1.628-24.055-1.628-49.706 0-90 20.147-90 45s40.294 45 90 45c17.176 0 33.227-2.407 46.882-6.582l-3.789-3.789c-12.19-12.19-19.038-28.723-19.038-45.962z" fill="#676fb2"/></g><g><path d="m280.054 107.984h-27.722c-18.43 0-35.838 8.47-47.212 22.973l-94.247 120.172 94.247 120.172c11.374 14.502 28.782 22.965 47.212 22.965h27.722c68.769-11.494 121.074-71.232 121.074-143.137 0-71.958-52.37-131.684-121.074-143.145z" fill="#8288cb"/><path d="m158.981 251.129c0-71.957 52.372-131.683 121.073-143.145-7.825-1.306-15.859-1.984-24.055-1.984-80.15 0-145.127 64.976-145.127 145.129 0 80.15 64.977 145.127 145.127 145.127 8.196 0 16.229-.684 24.055-1.99-68.701-11.462-121.073-71.182-121.073-143.137z" fill="#676fb2"/></g><g><path d="m395.97 210.06-118.79-23.309-28.666 9.348v132.997l47.67 22.241 102.549-40.245c6.126-2.404 10.155-8.313 10.155-14.894v-70.438c.001-7.649-5.413-14.228-12.918-15.7z" fill="#d4d4ff"/><path d="m277.18 332.331c-.001-.001-.002-.002-.003-.003-14.197-14.198-21.177-33.454-21.177-53.533v-38.508c0-20.08 6.982-39.338 21.18-53.536-13.987-2.745-28.374-2.745-42.361 0l-118.789 23.309c-7.506 1.473-12.919 8.052-12.919 15.701v70.437c0 6.581 4.029 12.49 10.155 14.894l102.549 40.245c25.831 10.137 54.539 10.137 80.37 0z" fill="#9ea2e3"/></g><g><path d="m401.141 203.849c-9.574-29.346-28.274-55.646-53-74.401-23.271-17.651-50.472-28.045-79.319-30.42.2-2.548 1.031-4.646 2.36-6.524 28.936 15.209 61.185-8.353 61.185-41.258 0-30.219-27.124-51.246-55.526-51.246-36.508 0-62.13 32.837-62.13 67.462 0 12.226 3.055 23.979 8.883 34.467-21.441 4.614-41.612 13.832-59.474 27.32-3.306 2.496-3.962 7.199-1.466 10.505 2.496 3.307 7.201 3.962 10.505 1.466 24.014-18.135 52.66-27.72 82.839-27.72 56.285 0 107.137 35.008 127.807 86.53l-105.181-20.639c-15.012-2.947-30.236-2.947-45.25 0-.635.125-74.143 14.548-105.193 20.641 5.737-14.386 13.835-27.621 24.187-39.46 2.727-3.118 2.409-7.855-.709-10.582-3.119-2.729-7.856-2.41-10.583.709-13.676 15.64-23.822 33.474-30.198 53.062-9.034 3.386-15.267 12.1-15.267 21.999v70.438c0 9.733 5.854 18.32 14.915 21.876l10.383 4.075c12.144 23.074 29.758 42.464 51.471 56.677-12.004 10.798-17.392 24.962-11.5 39.274-21.18 23.272-33.453 53.808-33.453 86.401 0 4.143 3.358 7.5 7.5 7.5h242.146c4.143 0 7.5-3.357 7.5-7.5 0-7.271-.617-14.565-1.835-21.682-.698-4.084-4.577-6.827-8.657-6.128-4.083.698-6.826 4.574-6.128 8.657.656 3.838 1.115 7.735 1.373 11.652h-25.196c-.305-21.305-1.938-41.576-5.042-62.866 1.179-1.032 2.292-2.089 3.338-3.17 7.096 8.319 12.944 17.539 17.393 27.532 1.685 3.785 6.118 5.487 9.901 3.802 3.784-1.685 5.486-6.117 3.802-9.901-5.599-12.579-13.127-24.091-22.407-34.292 5.912-14.356.473-28.516-11.507-39.287 21.722-14.215 39.34-33.604 51.483-56.67l10.383-4.075c9.061-3.556 14.915-12.143 14.915-21.876v-70.437c0-10.019-5.967-18.351-15.248-21.911zm-171.43-136.387c0-15.011 5.845-29.123 16.458-39.735 26.107-26.103 71.197-8.817 71.197 23.519 0 8.884-3.46 17.236-9.743 23.519-9.791 9.793-25.722 9.791-35.512 0-3.511-3.511-5.444-8.178-5.444-13.143 0-14.462 15.123-22.372 24.354-13.143 2.929 2.93 7.678 2.929 10.606-.001 2.929-2.929 2.928-7.678-.001-10.606-18.549-18.547-49.96-4.288-49.96 23.75 0 7.948 2.747 15.472 7.784 21.497-3.503 4.636-5.313 9.928-5.617 15.404-4.771.065-9.505.347-14.194.842-6.496-9.386-9.928-20.376-9.928-31.903zm-60.143 363.499c1.041 1.075 2.148 2.127 3.32 3.155-3.055 21.031-4.717 41.719-5.031 62.884h-25.187c1.582-24.28 10.959-47.357 26.898-66.039zm159.562 66.039h-146.273c.276-17.986 1.554-35.62 3.867-53.434 15.922 8.579 37.481 14.125 61.776 15.076v15.858c0 4.14 3.36 7.5 7.5 7.5 4.13 0 7.5-3.36 7.5-7.5v-15.858c24.286-.951 45.837-6.493 61.757-15.066 2.346 17.934 3.604 35.292 3.873 53.424zm-6.549-125.416c-7.712 4.272-15.905 7.819-24.351 10.544-3.942 1.271-6.107 5.498-4.836 9.439 1.274 3.949 5.506 6.106 9.44 4.836 7.893-2.545 15.584-5.748 22.931-9.527 8.243 5.987 12.734 12.783 12.734 19.413 0 18.628-35.167 37.5-82.5 37.5-47.209 0-82.5-18.813-82.5-37.5 0-6.626 4.487-13.419 12.722-19.406 7.338 3.774 15.024 6.975 22.914 9.52 3.94 1.272 8.168-.892 9.44-4.835 1.272-3.942-.893-8.169-4.835-9.44-8.446-2.725-16.634-6.271-24.336-10.538-18.08-10.019-33.468-23.771-45.325-40.349l68.996 27.077c27.68 10.863 58.168 10.864 85.85 0l68.991-27.075c-11.858 16.57-27.249 30.32-45.335 40.341zm78.808-75.387c0 3.521-2.118 6.627-5.395 7.913l-102.549 40.244c-24.147 9.476-50.743 9.476-74.891 0l-102.548-40.244c-3.277-1.286-5.395-4.393-5.395-7.913v-70.437c0-4.053 2.886-7.561 6.861-8.34 1.161-.228 117.991-23.152 118.791-23.31 13.095-2.57 26.377-2.57 39.473 0l117.997 23.153c5.645 1.107 7.655 5.115 7.655 8.496v70.438z"/><path d="m221.051 262.5c0-4.143-3.358-7.5-7.5-7.5h-40c-4.142 0-7.5 3.357-7.5 7.5s3.358 7.5 7.5 7.5h40c4.142 0 7.5-3.357 7.5-7.5z"/><path d="m338.448 255h-40c-4.142 0-7.5 3.357-7.5 7.5s3.358 7.5 7.5 7.5h40c4.143 0 7.5-3.357 7.5-7.5s-3.357-7.5-7.5-7.5z"/><circle cx="226" cy="292.956" r="7.5"/><circle cx="186" cy="292.956" r="7.5"/><circle cx="286" cy="292.956" r="7.5"/><circle cx="226" cy="322.956" r="7.5"/><circle cx="286" cy="322.956" r="7.5"/><circle cx="326" cy="292.956" r="7.5"/><path d="m256 207.192c-4.142 0-7.5 3.357-7.5 7.5v114.244c0 4.143 3.358 7.5 7.5 7.5s7.5-3.357 7.5-7.5v-114.244c0-4.142-3.358-7.5-7.5-7.5z"/></g></g></svg>